<!--version="1.0" encoding="UTF-8" standalone="yes"--><svg xmlns="http://www.w3.org/2000/svg" xmlns:xlink="http://www.w3.org/1999/xlink" width="612pt" height="792pt">
 <g id="SFixTitle"/>
 <g id="SContent">
  <g transform="scale(1.33333)">
   <rect width="100%" height="100%" fill="white"/>
   <g>
    <g>
     <g/>
     <g shape-rendering="crispEdges"/>
     <g/>
    </g>
    <g>
     <g/>
    </g>
    <g>
     <g/>
    </g>
   </g>
   <g transform="matrix(1,0,0,1,54,72)">
    <defs>
     <clipPath id="CLIP0">
      <path d="M-0.5,-0.5 L427.5,-0.5 L427.5,643.5 L-0.5,643.5 Z "/>
     </clipPath>
    </defs>
    <g clip-path="url(#CLIP0)">
     <g/>
     <g shape-rendering="crispEdges"/>
     <g/>
    </g>
    <defs>
     <clipPath id="CLIP1">
      <path d="M-0.5,-1.45363903 L427.5,-1.45363903 L427.5,644.546386719 L-0.5,644.546386719 Z "/>
     </clipPath>
    </defs>
    <g clip-path="url(#CLIP1)">
     <g>
      <g/>
     </g>
    </g>
    <defs>
     <clipPath id="CLIP2">
      <path d="M-0.5,-0.5 L427.5,-0.5 L427.5,643.5 L-0.5,643.5 Z "/>
     </clipPath>
    </defs>
    <g clip-path="url(#CLIP2)">
     <g>
      <defs>
       <clipPath id="CLIP3">
        <path d="M0.25,0.25 L29.737474442,0.25 L29.737474442,110.953392029 L0.25,110.953392029 Z "/>
       </clipPath>
      </defs>
      <g clip-path="url(#CLIP3)">
       <g>
        <g transform="matrix(1,0,0,1,12.50373745,60.810569763)">
         <text x="0" y="-2.110664129" class="f0">v</text>
        </g>
       </g>
      </g>
      <defs>
       <clipPath id="CLIP4">
        <path d="M30.237474442,0.25 L53.41179657,0.25 L53.41179657,110.953392029 L30.237474442,110.953392029 Z "/>
       </clipPath>
      </defs>
      <g clip-path="url(#CLIP4)">
       <g>
        <g transform="matrix(1,0,0,1,38.782653809,60.810569763)">
         <text x="0" y="-2.110664129" class="f0">fr</text>
        </g>
       </g>
      </g>
      <defs>
       <clipPath id="CLIP5">
        <path d="M53.91179657,0.25 L68.405532837,0.25 L68.405532837,110.953392029 L53.91179657,110.953392029 Z "/>
       </clipPath>
      </defs>
      <g clip-path="url(#CLIP5)">
       <g>
        <g transform="matrix(1,0,0,1,57.28263092,60.810569763)">
         <text x="0" y="-2.110664129" class="f0">ip</text>
        </g>
       </g>
      </g>
      <defs>
       <clipPath id="CLIP6">
        <path d="M68.905532837,0.25 L92.079856873,0.25 L92.079856873,110.953392029 L68.905532837,110.953392029 Z "/>
       </clipPath>
      </defs>
      <g clip-path="url(#CLIP6)">
       <g>
        <g transform="matrix(1,0,0,1,74.953414917,60.810569763)">
         <text x="0" y="-2.110664129" class="f0">op</text>
        </g>
       </g>
      </g>
      <defs>
       <clipPath id="CLIP7">
        <path d="M92.579856873,0.25 L121.278182983,0.25 L121.278182983,110.953392029 L92.579856873,110.953392029 Z "/>
       </clipPath>
      </defs>
      <g clip-path="url(#CLIP7)">
       <g>
        <g transform="matrix(1,0,0,1,103.332626343,60.810569763)">
         <text x="0" y="-2.110664129" class="f0">w</text>
        </g>
       </g>
      </g>
      <defs>
       <clipPath id="CLIP8">
        <path d="M121.778182983,0.25 L150.476516724,0.25 L150.476516724,110.953392029 L121.778182983,110.953392029 Z "/>
       </clipPath>
      </defs>
      <g clip-path="url(#CLIP8)">
       <g>
        <g transform="matrix(1,0,0,1,133.357711792,60.810569763)">
         <text x="0" y="-2.110664129" class="f0">h</text>
        </g>
       </g>
      </g>
      <defs>
       <clipPath id="CLIP9">
        <path d="M150.976516724,0.25 L193.090301514,0.25 L193.090301514,110.953392029 L150.976516724,110.953392029 Z "/>
       </clipPath>
      </defs>
      <g clip-path="url(#CLIP9)">
       <g>
        <g transform="matrix(1,0,0,1,165.115386963,60.810569763)">
         <text x="0" y="-2.110664129" class="f0">nm</text>
        </g>
       </g>
      </g>
      <defs>
       <clipPath id="CLIP10">
        <path d="M193.590301514,0.25 L216.76461792,0.25 L216.76461792,110.953392029 L193.590301514,110.953392029 Z "/>
       </clipPath>
      </defs>
      <g clip-path="url(#CLIP10)">
       <g>
        <g transform="matrix(1,0,0,1,196.868545532,60.810569763)">
         <text x="0" y="-2.110664129" class="f0">ddd</text>
        </g>
       </g>
      </g>
      <defs>
       <clipPath id="CLIP11">
        <path d="M217.26461792,0.25 L266.480682373,0.25 L266.480682373,110.953392029 L217.26461792,110.953392029 Z "/>
       </clipPath>
      </defs>
      <g clip-path="url(#CLIP11)">
       <g>
        <g transform="matrix(1,0,0,1,221.10887146,60.810569763)">
         <text x="0" y="-2.110664129" class="f0">metadata</text>
        </g>
       </g>
      </g>
      <defs>
       <clipPath id="CLIP12">
        <path d="M266.980682373,0.25 L3454.622802734,0.25 L3454.622802734,12.105932236 L266.980682373,12.105932236 Z "/>
       </clipPath>
      </defs>
      <g clip-path="url(#CLIP12)">
       <g>
        <g transform="matrix(1,0,0,1,1846.408935547,11.386839867)">
         <text x="0" y="-2.110664129" class="f0">assets</text>
        </g>
       </g>
      </g>
      <defs>
       <clipPath id="CLIP13">
        <path d="M266.980682373,12.605932236 L281.47442627,12.605932236 L281.47442627,110.953392029 L266.980682373,110.953392029 Z "/>
       </clipPath>
      </defs>
      <g clip-path="url(#CLIP13)">
       <g>
        <g transform="matrix(1,0,0,1,270.351501465,66.98853302)">
         <text x="0" y="-2.110664129" class="f0">id</text>
        </g>
       </g>
      </g>
      <defs>
       <clipPath id="CLIP14">
        <path d="M281.97442627,12.605932236 L3454.622558594,12.605932236 L3454.622558594,24.461864471 L281.97442627,24.461864471 Z "/>
       </clipPath>
      </defs>
      <g clip-path="url(#CLIP14)">
       <g>
        <g transform="matrix(1,0,0,1,1855.014404297,23.742771149)">
         <text x="0" y="-2.110664129" class="f0">layers</text>
        </g>
       </g>
      </g>
      <defs>
       <clipPath id="CLIP15">
        <path d="M281.97442627,24.961864471 L305.148742676,24.961864471 L305.148742676,110.953384399 L281.97442627,110.953384399 Z "/>
       </clipPath>
      </defs>
      <g clip-path="url(#CLIP15)">
       <g>
        <g transform="matrix(1,0,0,1,285.252685547,73.166496277)">
         <text x="0" y="-2.110664129" class="f0">ddd</text>
        </g>
       </g>
      </g>
      <defs>
       <clipPath id="CLIP16">
        <path d="M305.648742676,24.961864471 L331.190490723,24.961864471 L331.190490723,110.953384399 L305.648742676,110.953384399 Z "/>
       </clipPath>
      </defs>
      <g clip-path="url(#CLIP16)">
       <g>
        <g transform="matrix(1,0,0,1,308.454742432,73.166496277)">
         <text x="0" y="-2.110664129" class="f0">refId</text>
        </g>
       </g>
      </g>
      <defs>
       <clipPath id="CLIP17">
        <path d="M331.69052124,24.961864471 L360.38885498,24.961864471 L360.38885498,110.953384399 L331.69052124,110.953384399 Z "/>
       </clipPath>
      </defs>
      <g clip-path="url(#CLIP17)">
       <g>
        <g transform="matrix(1,0,0,1,342.44329834,73.166496277)">
         <text x="0" y="-2.110664129" class="f0">w</text>
        </g>
       </g>
      </g>
      <defs>
       <clipPath id="CLIP18">
        <path d="M360.888824463,24.961864471 L389.587158203,24.961864471 L389.587158203,110.953384399 L360.888824463,110.953384399 Z "/>
       </clipPath>
      </defs>
      <g clip-path="url(#CLIP18)">
       <g>
        <g transform="matrix(1,0,0,1,372.468353271,73.166496277)">
         <text x="0" y="-2.110664129" class="f0">h</text>
        </g>
       </g>
      </g>
      <defs>
       <clipPath id="CLIP19">
        <path d="M390.087158203,24.961864471 L410.104919434,24.961864471 L410.104919434,110.953384399 L390.087158203,110.953384399 Z "/>
       </clipPath>
      </defs>
      <g clip-path="url(#CLIP19)">
       <g>
        <g transform="matrix(1,0,0,1,393.4503479,73.166496277)">
         <text x="0" y="-2.110664129" class="f0">ind</text>
        </g>
       </g>
      </g>
      <defs>
       <clipPath id="CLIP20">
        <path d="M410.604919434,24.961864471 L425.887786865,24.961864471 L425.887786865,110.953384399 L410.604919434,110.953384399 Z "/>
       </clipPath>
      </defs>
      <g clip-path="url(#CLIP20)">
       <g>
        <g transform="matrix(1,0,0,1,414.372741699,73.166496277)">
         <text x="0" y="-2.110664129" class="f0">ty</text>
        </g>
       </g>
      </g>
      <defs>
       <clipPath id="CLIP21">
        <path d="M0.25,111.453392029 L29.737474442,111.453392029 L29.737474442,123.309326172 L0.25,123.309326172 Z "/>
       </clipPath>
      </defs>
      <g clip-path="url(#CLIP21)">
       <g>
        <g transform="matrix(1,0,0,1,1.052192092,122.590232849)">
         <text x="1" y="-2.110664129" class="f0">5.7.5</text>
        </g>
       </g>
      </g>
      <defs>
       <clipPath id="CLIP22">
        <path d="M30.237474442,111.453392029 L53.41179657,111.453392029 L53.41179657,123.309326172 L30.237474442,123.309326172 Z "/>
       </clipPath>
      </defs>
      <g clip-path="url(#CLIP22)">
       <g>
        <g transform="matrix(1,0,0,1,36.043964386,122.590232849)">
         <text x="-1" y="-2.110664129" class="f0">100</text>
        </g>
       </g>
      </g>
      <defs>
       <clipPath id="CLIP23">
        <path d="M53.91179657,111.453392029 L68.405532837,111.453392029 L68.405532837,123.309326172 L53.91179657,123.309326172 Z "/>
       </clipPath>
      </defs>
      <g clip-path="url(#CLIP23)">
       <g>
        <g transform="matrix(1,0,0,1,62.116256714,122.590232849)">
         <text x="-1" y="-2.110664129" class="f0">0</text>
        </g>
       </g>
      </g>
      <defs>
       <clipPath id="CLIP24">
        <path d="M68.905532837,111.453392029 L92.079856873,111.453392029 L92.079856873,123.309326172 L68.905532837,123.309326172 Z "/>
       </clipPath>
      </defs>
      <g clip-path="url(#CLIP24)">
       <g>
        <g transform="matrix(1,0,0,1,74.712020874,122.590232849)">
         <text x="-1" y="-2.110664129" class="f0">400</text>
        </g>
       </g>
      </g>
      <defs>
       <clipPath id="CLIP25">
        <path d="M92.579856873,111.453392029 L121.278182983,111.453392029 L121.278182983,123.309326172 L92.579856873,123.309326172 Z "/>
       </clipPath>
      </defs>
      <g clip-path="url(#CLIP25)">
       <g>
        <g transform="matrix(1,0,0,1,98.371078491,122.590232849)">
         <text x="-1" y="-2.110664129" class="f0">1247</text>
        </g>
       </g>
      </g>
      <defs>
       <clipPath id="CLIP26">
        <path d="M121.778182983,111.453392029 L150.476516724,111.453392029 L150.476516724,123.309326172 L121.778182983,123.309326172 Z "/>
       </clipPath>
      </defs>
      <g clip-path="url(#CLIP26)">
       <g>
        <g transform="matrix(1,0,0,1,127.569404602,122.590232849)">
         <text x="-1" y="-2.110664129" class="f0">1247</text>
        </g>
       </g>
      </g>
      <defs>
       <clipPath id="CLIP27">
        <path d="M150.976516724,111.453392029 L193.090301514,111.453392029 L193.090301514,123.309326172 L150.976516724,123.309326172 Z "/>
       </clipPath>
      </defs>
      <g clip-path="url(#CLIP27)">
       <g>
        <g transform="matrix(1,0,0,1,151.778701782,122.590232849)">
         <text x="1" y="-2.110664129" class="f0">Comp</text>
         <text x="27.568105698" y="-2.110664129" class="f0"> </text>
         <text x="30.33531189" y="-2.110664129" class="f0">1</text>
        </g>
       </g>
      </g>
      <defs>
       <clipPath id="CLIP28">
        <path d="M193.590301514,111.453392029 L216.76461792,111.453392029 L216.76461792,123.309326172 L193.590301514,123.309326172 Z "/>
       </clipPath>
      </defs>
      <g clip-path="url(#CLIP28)">
       <g>
        <g transform="matrix(1,0,0,1,210.475341797,122.590232849)">
         <text x="-1" y="-2.110664129" class="f0">0</text>
        </g>
       </g>
      </g>
      <defs>
       <clipPath id="CLIP29">
        <path d="M266.980682373,111.453392029 L281.47442627,111.453392029 L281.47442627,123.309326172 L266.980682373,123.309326172 Z "/>
       </clipPath>
      </defs>
      <g clip-path="url(#CLIP29)">
       <g>
        <g transform="matrix(1,0,0,1,267.782867432,122.590232849)">
         <text x="1" y="-2.110664129" class="f0">0</text>
        </g>
       </g>
      </g>
      <defs>
       <clipPath id="CLIP30">
        <path d="M281.97442627,111.453392029 L305.148742676,111.453392029 L305.148742676,123.309326172 L281.97442627,123.309326172 Z "/>
       </clipPath>
      </defs>
      <g clip-path="url(#CLIP30)">
       <g>
        <g transform="matrix(1,0,0,1,298.859466553,122.590232849)">
         <text x="-1" y="-2.110664129" class="f0">0</text>
        </g>
       </g>
      </g>
      <defs>
       <clipPath id="CLIP31">
        <path d="M305.648742676,111.453392029 L331.190490723,111.453392029 L331.190490723,123.309326172 L305.648742676,123.309326172 Z "/>
       </clipPath>
      </defs>
      <g clip-path="url(#CLIP31)">
       <g>
        <g transform="matrix(1,0,0,1,306.450927734,122.590232849)">
         <text x="1" y="-2.110664129" class="f0">1</text>
        </g>
       </g>
      </g>
      <defs>
       <clipPath id="CLIP32">
        <path d="M331.69052124,111.453392029 L360.38885498,111.453392029 L360.38885498,123.309326172 L331.69052124,123.309326172 Z "/>
       </clipPath>
      </defs>
      <g clip-path="url(#CLIP32)">
       <g>
        <g transform="matrix(1,0,0,1,337.481750488,122.590232849)">
         <text x="-1" y="-2.110664129" class="f0">2300</text>
        </g>
       </g>
      </g>
      <defs>
       <clipPath id="CLIP33">
        <path d="M360.888824463,111.453392029 L389.587158203,111.453392029 L389.587158203,123.309326172 L360.888824463,123.309326172 Z "/>
       </clipPath>
      </defs>
      <g clip-path="url(#CLIP33)">
       <g>
        <g transform="matrix(1,0,0,1,366.680053711,122.590232849)">
         <text x="-1" y="-2.110664129" class="f0">2300</text>
        </g>
       </g>
      </g>
      <defs>
       <clipPath id="CLIP34">
        <path d="M390.087158203,111.453392029 L410.104919434,111.453392029 L410.104919434,123.309326172 L390.087158203,123.309326172 Z "/>
       </clipPath>
      </defs>
      <g clip-path="url(#CLIP34)">
       <g>
        <g transform="matrix(1,0,0,1,403.815612793,122.590232849)">
         <text x="-1" y="-2.110664129" class="f0">1</text>
        </g>
       </g>
      </g>
      <defs>
       <clipPath id="CLIP35">
        <path d="M410.604919434,111.453392029 L425.887786865,111.453392029 L425.887786865,123.309326172 L410.604919434,123.309326172 Z "/>
       </clipPath>
      </defs>
      <g clip-path="url(#CLIP35)">
       <g>
        <g transform="matrix(1,0,0,1,419.598510742,122.590232849)">
         <text x="-1" y="-2.110664129" class="f0">0</text>
        </g>
       </g>
      </g>
      <defs>
       <clipPath id="CLIP36">
        <path d="M281.97442627,136.165252686 L305.148742676,136.165252686 L305.148742676,148.021179199 L281.97442627,148.021179199 Z "/>
       </clipPath>
      </defs>
      <g clip-path="url(#CLIP36)">
       <g>
        <g transform="matrix(1,0,0,1,298.859466553,147.302093506)">
         <text x="-1" y="-2.110664129" class="f0">0</text>
        </g>
       </g>
      </g>
      <defs>
       <clipPath id="CLIP37">
        <path d="M390.087158203,136.165252686 L410.104919434,136.165252686 L410.104919434,148.021179199 L390.087158203,148.021179199 Z "/>
       </clipPath>
      </defs>
      <g clip-path="url(#CLIP37)">
       <g>
        <g transform="matrix(1,0,0,1,403.815612793,147.302093506)">
         <text x="-1" y="-2.110664129" class="f0">2</text>
        </g>
       </g>
      </g>
      <defs>
       <clipPath id="CLIP38">
        <path d="M410.604919434,136.165252686 L425.887786865,136.165252686 L425.887786865,148.021179199 L410.604919434,148.021179199 Z "/>
       </clipPath>
      </defs>
      <g clip-path="url(#CLIP38)">
       <g>
        <g transform="matrix(1,0,0,1,419.598510742,147.302093506)">
         <text x="-1" y="-2.110664129" class="f0">4</text>
        </g>
       </g>
      </g>
      <defs>
       <clipPath id="CLIP39">
        <path d="M266.980682373,197.944915771 L281.47442627,197.944915771 L281.47442627,209.800842285 L266.980682373,209.800842285 Z "/>
       </clipPath>
      </defs>
      <g clip-path="url(#CLIP39)">
       <g>
        <g transform="matrix(1,0,0,1,267.782867432,209.081756592)">
         <text x="1" y="-2.110664129" class="f0">2</text>
        </g>
       </g>
      </g>
      <defs>
       <clipPath id="CLIP40">
        <path d="M281.97442627,197.944915771 L305.148742676,197.944915771 L305.148742676,209.800842285 L281.97442627,209.800842285 Z "/>
       </clipPath>
      </defs>
      <g clip-path="url(#CLIP40)">
       <g>
        <g transform="matrix(1,0,0,1,298.859466553,209.081756592)">
         <text x="-1" y="-2.110664129" class="f0">0</text>
        </g>
       </g>
      </g>
      <defs>
       <clipPath id="CLIP41">
        <path d="M390.087158203,197.944915771 L410.104919434,197.944915771 L410.104919434,209.800842285 L390.087158203,209.800842285 Z "/>
       </clipPath>
      </defs>
      <g clip-path="url(#CLIP41)">
       <g>
        <g transform="matrix(1,0,0,1,403.815612793,209.081756592)">
         <text x="-1" y="-2.110664129" class="f0">3</text>
        </g>
       </g>
      </g>
      <defs>
       <clipPath id="CLIP42">
        <path d="M410.604919434,197.944915771 L425.887786865,197.944915771 L425.887786865,209.800842285 L410.604919434,209.800842285 Z "/>
       </clipPath>
      </defs>
      <g clip-path="url(#CLIP42)">
       <g>
        <g transform="matrix(1,0,0,1,419.598510742,209.081756592)">
         <text x="-1" y="-2.110664129" class="f0">4</text>
        </g>
       </g>
      </g>
      <defs>
       <clipPath id="CLIP43">
        <path d="M281.97442627,383.283905029 L305.148742676,383.283905029 L305.148742676,395.139831543 L281.97442627,395.139831543 Z "/>
       </clipPath>
      </defs>
      <g clip-path="url(#CLIP43)">
       <g>
        <g transform="matrix(1,0,0,1,298.859466553,394.42074585)">
         <text x="-1" y="-2.110664129" class="f0">0</text>
        </g>
       </g>
      </g>
      <defs>
       <clipPath id="CLIP44">
        <path d="M305.648742676,383.283905029 L331.190490723,383.283905029 L331.190490723,395.139831543 L305.648742676,395.139831543 Z "/>
       </clipPath>
      </defs>
      <g clip-path="url(#CLIP44)">
       <g>
        <g transform="matrix(1,0,0,1,306.450927734,394.42074585)">
         <text x="1" y="-2.110664129" class="f0">0</text>
        </g>
       </g>
      </g>
      <defs>
       <clipPath id="CLIP45">
        <path d="M331.69052124,383.283905029 L360.38885498,383.283905029 L360.38885498,395.139831543 L331.69052124,395.139831543 Z "/>
       </clipPath>
      </defs>
      <g clip-path="url(#CLIP45)">
       <g>
        <g transform="matrix(1,0,0,1,337.481750488,394.42074585)">
         <text x="-1" y="-2.110664129" class="f0">1248</text>
        </g>
       </g>
      </g>
      <defs>
       <clipPath id="CLIP46">
        <path d="M360.888824463,383.283905029 L389.587158203,383.283905029 L389.587158203,395.139831543 L360.888824463,395.139831543 Z "/>
       </clipPath>
      </defs>
      <g clip-path="url(#CLIP46)">
       <g>
        <g transform="matrix(1,0,0,1,372.219329834,394.42074585)">
         <text x="-1" y="-2.110664129" class="f0">951</text>
        </g>
       </g>
      </g>
      <defs>
       <clipPath id="CLIP47">
        <path d="M390.087158203,383.283905029 L410.104919434,383.283905029 L410.104919434,395.139831543 L390.087158203,395.139831543 Z "/>
       </clipPath>
      </defs>
      <g clip-path="url(#CLIP47)">
       <g>
        <g transform="matrix(1,0,0,1,403.815612793,394.42074585)">
         <text x="-1" y="-2.110664129" class="f0">4</text>
        </g>
       </g>
      </g>
      <defs>
       <clipPath id="CLIP48">
        <path d="M410.604919434,383.283905029 L425.887786865,383.283905029 L425.887786865,395.139831543 L410.604919434,395.139831543 Z "/>
       </clipPath>
      </defs>
      <g clip-path="url(#CLIP48)">
       <g>
        <g transform="matrix(1,0,0,1,419.598510742,394.42074585)">
         <text x="-1" y="-2.110664129" class="f0">0</text>
        </g>
       </g>
      </g>
      <defs>
       <clipPath id="CLIP49">
        <path d="M266.980682373,407.995758057 L281.47442627,407.995758057 L281.47442627,419.85168457 L266.980682373,419.85168457 Z "/>
       </clipPath>
      </defs>
      <g clip-path="url(#CLIP49)">
       <g>
        <g transform="matrix(1,0,0,1,267.782867432,419.132598877)">
         <text x="1" y="-2.110664129" class="f0">1</text>
        </g>
       </g>
      </g>
      <defs>
       <clipPath id="CLIP50">
        <path d="M281.97442627,407.995758057 L305.148742676,407.995758057 L305.148742676,419.85168457 L281.97442627,419.85168457 Z "/>
       </clipPath>
      </defs>
      <g clip-path="url(#CLIP50)">
       <g>
        <g transform="matrix(1,0,0,1,298.859466553,419.132598877)">
         <text x="-1" y="-2.110664129" class="f0">0</text>
        </g>
       </g>
      </g>
      <defs>
       <clipPath id="CLIP51">
        <path d="M390.087158203,407.995758057 L410.104919434,407.995758057 L410.104919434,419.85168457 L390.087158203,419.85168457 Z "/>
       </clipPath>
      </defs>
      <g clip-path="url(#CLIP51)">
       <g>
        <g transform="matrix(1,0,0,1,403.815612793,419.132598877)">
         <text x="-1" y="-2.110664129" class="f0">5</text>
        </g>
       </g>
      </g>
      <defs>
       <clipPath id="CLIP52">
        <path d="M410.604919434,407.995758057 L425.887786865,407.995758057 L425.887786865,419.85168457 L410.604919434,419.85168457 Z "/>
       </clipPath>
      </defs>
      <g clip-path="url(#CLIP52)">
       <g>
        <g transform="matrix(1,0,0,1,419.598510742,419.132598877)">
         <text x="-1" y="-2.110664129" class="f0">4</text>
        </g>
       </g>
      </g>
     </g>
    </g>
    <defs>
     <clipPath id="CLIP53">
      <path d="M-0.5,-0.5 L427.5,-0.5 L427.5,643.5 L-0.5,643.5 Z "/>
     </clipPath>
    </defs>
    <g clip-path="url(#CLIP53)">
     <g/>
    </g>
   </g>
   <g/>
   <g/>
   <g/>
   <g>
    <g>
     <g/>
     <g shape-rendering="crispEdges"/>
     <g/>
    </g>
    <g>
     <g/>
    </g>
    <g>
     <g/>
    </g>
   </g>
  </g>
 </g>
 <defs/>
 <defs>
  <style type="text/css">.f0 { font: 9.96px Arial; fill: rgb(0, 0, 0); }</style>
 </defs>
</svg>