<svg fill="none" height="100%" width="100%" viewBox="0 0 1200 1200" xmlns:xlink="http://www.w3.org/1999/xlink" xmlns="http://www.w3.org/2000/svg"><defs><radialGradient id="i0" gradientUnits="userSpaceOnUse" spreadMethod="pad" cx="0" cy="0" r="100" fy="0" fx="0"><stop offset="0%" stop-color="#6aaee0" /><stop stop-opacity="0.877" offset="12.3%" stop-color="#4a92c9" /><stop stop-opacity="0.753" offset="24.7%" stop-color="#3574a5" /><stop stop-opacity="0.5" offset="50%" stop-color="#3e537e" /><stop stop-opacity="0.377" offset="62.3%" stop-color="#354567" /><stop stop-opacity="0" offset="100%" stop-color="#171a1f" /></radialGradient><radialGradient id="i1" gradientUnits="userSpaceOnUse" spreadMethod="pad" cx="0" cy="0" r="100" fy="0" fx="0"><stop offset="0%" stop-color="#6aaee0" /><stop stop-opacity="0.877" offset="12.3%" stop-color="#4a92c9" /><stop stop-opacity="0.753" offset="24.7%" stop-color="#3574a5" /><stop stop-opacity="0.5" offset="50%" stop-color="#3e537e" /><stop stop-opacity="0.377" offset="62.3%" stop-color="#354567" /><stop stop-opacity="0" offset="100%" stop-color="#171a1f" /></radialGradient></defs><g transform="matrix(1,0,0,1,600,600)" id="i2"><g id="i3"><g id="i4" transform="matrix(0.707,0.707,-0.707,0.707,0,0)"><path stroke-dashoffset="-75.01" stroke-dasharray="24.98 75.02" pathLength="100" d="M0,-200C0,-200,85.885,-196.957,141.421,-141.421C196.957,-85.885,200,0,200,0C200,0,196.957,85.885,141.421,141.421C85.885,196.957,0,200,0,200C0,200,-85.885,196.957,-141.421,141.421C-196.957,85.885,-200,0,-200,0C-200,0,-196.957,-85.885,-141.421,-141.421C-85.885,-196.957,0,-200,0,-200Z" /></g><g id="i5"><g id="i6"><path d="" /></g></g><g id="i7"><g id="i8" transform="matrix(1,0,0,1,-200,-200)"><path d="" /></g></g><g id="i9" transform="matrix(1,0,0,1,-135,0)"><g id="i10"><path d="" /></g></g></g><g id="i11"><g id="i12"><g id="i13" transform="matrix(0.707,0.707,-0.707,0.707,0,0)" stroke-linejoin="round" stroke-linecap="round" stroke-width="19" stroke="#705b62"><path stroke-dashoffset="-75" stroke-dasharray="0 100" pathLength="100" d="M0,-113C0,-113,353.553,-353.553,353.553,-353.553C353.553,-353.553,113,0,113,0C113,0,353.553,353.553,353.553,353.553C353.553,353.553,0,113,0,113C0,113,-353.553,353.553,-353.553,353.553C-353.553,353.553,-113,0,-113,0C-113,0,-353.553,-353.553,-353.553,-353.553C-353.553,-353.553,0,-113,0,-113Z" /></g></g></g></g><g transform="matrix(1,0,0,0.9,498.007,954.074)" id="i14"><g id="i15"><path fill="url(#i0)" stroke-linejoin="round" stroke-linecap="round" stroke-width="17" stroke="#705b62" d="M169,4.833C169,4.833,122.5,5,122.5,5" /></g></g><g transform="matrix(1,0,0,0.9,544.981,952.485)" id="i16"><g id="i15"><path fill="url(#i1)" stroke-linejoin="round" stroke-linecap="round" stroke-width="17" stroke="#705b62" d="M13,6.5C13,6.5,-33.5,6.667,-33.5,6.667" /></g></g><g transform="matrix(1,0,0,1,600,600)" id="i17"><g id="i3"><g id="i4" transform="matrix(0.707,0.707,-0.707,0.707,0,0)"><path stroke-dashoffset="-75.01" stroke-dasharray="24.98 75.02" pathLength="100" d="M0,-200C0,-200,85.885,-196.957,141.421,-141.421C196.957,-85.885,200,0,200,0C200,0,196.957,85.885,141.421,141.421C85.885,196.957,0,200,0,200C0,200,-85.885,196.957,-141.421,141.421C-196.957,85.885,-200,0,-200,0C-200,0,-196.957,-85.885,-141.421,-141.421C-85.885,-196.957,0,-200,0,-200Z" /></g><g id="i5"><g id="i6"><path d="" /></g></g><g id="i7"><g id="i18" transform="matrix(1,0,0,1,-200,-200)"><path d="" /></g></g><g id="i9" transform="matrix(1,0,0,1,-135,0)"><g id="i19"><path d="" /></g></g></g><g id="i11"><g id="i12"><g id="i13" transform="matrix(0.707,0.707,-0.707,0.707,0,0)" stroke-linejoin="round" stroke-linecap="round" stroke-width="6.5" stroke="#705b62"><path stroke-dashoffset="-75" stroke-dasharray="0 100" pathLength="100" d="M0,-113C0,-113,353.553,-353.553,353.553,-353.553C353.553,-353.553,113,0,113,0C113,0,353.553,353.553,353.553,353.553C353.553,353.553,0,113,0,113C0,113,-353.553,353.553,-353.553,353.553C-353.553,353.553,-113,0,-113,0C-113,0,-353.553,-353.553,-353.553,-353.553C-353.553,-353.553,0,-113,0,-113Z" /></g></g></g></g><g transform="matrix(1,0,0,1,600,600)" id="i20"><g id="i3"><g id="i4" transform="matrix(0.707,0.707,-0.707,0.707,0,0)"><path stroke-dashoffset="-75.01" stroke-dasharray="24.98 75.02" pathLength="100" d="M0,-200C0,-200,85.885,-196.957,141.421,-141.421C196.957,-85.885,200,0,200,0C200,0,196.957,85.885,141.421,141.421C85.885,196.957,0,200,0,200C0,200,-85.885,196.957,-141.421,141.421C-196.957,85.885,-200,0,-200,0C-200,0,-196.957,-85.885,-141.421,-141.421C-85.885,-196.957,0,-200,0,-200Z" /></g><g id="i5"><g id="i6"><path d="" /></g></g><g id="i7"><g id="i21" transform="matrix(1,0,0,1,-200,-200)"><path d="" /></g></g><g id="i9" transform="matrix(1,0,0,1,-135,0)"><g id="i22"><path d="" /></g></g></g><g id="i11"><g id="i12"><g id="i13" transform="matrix(0.707,0.707,-0.707,0.707,0,0)" stroke-linejoin="round" stroke-linecap="round" stroke-width="19" stroke="#705b62"><path stroke-dashoffset="-75" stroke-dasharray="0 100" pathLength="100" d="M0,-113C0,-113,353.553,-353.553,353.553,-353.553C353.553,-353.553,113,0,113,0C113,0,353.553,353.553,353.553,353.553C353.553,353.553,0,113,0,113C0,113,-353.553,353.553,-353.553,353.553C-353.553,353.553,-113,0,-113,0C-113,0,-353.553,-353.553,-353.553,-353.553C-353.553,-353.553,0,-113,0,-113Z" /></g></g></g></g><g transform="matrix(1,0,0,1,600,600)" id="i23"><g id="i3"><g id="i4" transform="matrix(0.707,0.707,-0.707,0.707,0,0)"><path stroke-dashoffset="-75.01" stroke-dasharray="24.98 75.02" pathLength="100" d="M0,-200C0,-200,85.885,-196.957,141.421,-141.421C196.957,-85.885,200,0,200,0C200,0,196.957,85.885,141.421,141.421C85.885,196.957,0,200,0,200C0,200,-85.885,196.957,-141.421,141.421C-196.957,85.885,-200,0,-200,0C-200,0,-196.957,-85.885,-141.421,-141.421C-85.885,-196.957,0,-200,0,-200Z" /></g><g id="i5"><g id="i6"><path d="" /></g></g><g id="i7"><g id="i24" transform="matrix(1,0,0,1,-200,-200)"><path d="" /></g></g><g id="i9" transform="matrix(1,0,0,1,-135,0)"><g id="i25"><path d="" /></g></g></g><g id="i11"><g id="i12"><g id="i13" transform="matrix(0.707,0.707,-0.707,0.707,0,0)" stroke-linejoin="round" stroke-linecap="round" stroke-width="6.5" stroke="#705b62"><path stroke-dashoffset="-75" stroke-dasharray="0 100" pathLength="100" d="M0,-113C0,-113,353.553,-353.553,353.553,-353.553C353.553,-353.553,113,0,113,0C113,0,353.553,353.553,353.553,353.553C353.553,353.553,0,113,0,113C0,113,-353.553,353.553,-353.553,353.553C-353.553,353.553,-113,0,-113,0C-113,0,-353.553,-353.553,-353.553,-353.553C-353.553,-353.553,0,-113,0,-113Z" /></g></g></g></g><g id="i26"><g transform="translate(586.498,837.317)"><animateTransform repeatCount="indefinite" type="translate" attributeName="transform" dur="5.267s" begin="0s" calcMode="spline" values="586.498 837.317; 586.498 845.317; 586.498 827.317; 586.498 837.317; 586.498 843.317; 586.498 837.317; 586.498 843.317; 586.498 837.317; 586.498 837.317" keyTimes="0; 0.129747; 0.572785; 0.762659; 0.815801; 0.864851; 0.903677; 0.958861; 1" keySplines="0.486 0 0.282 1; 0.566 0 0.032 1; 0.461 0 0 1; 0.333 0 0 1; 0.333 0 0 1; 0.333 0 0 1; 0.333 0 0 1; 0 0 1 1" fill="freeze" /><g transform="scale(2.5,2.5)"><animateTransform repeatCount="indefinite" type="scale" attributeName="transform" dur="5.267s" begin="0s" calcMode="spline" values="2.5 2.5; 2.5 2.45; 2.5 2.55; 2.5 2.5; 2.5 2.45; 2.5 2.5; 2.5 2.45; 2.5 2.5; 2.5 2.5" keyTimes="0; 0.129747; 0.572785; 0.762659; 0.815801; 0.864851; 0.903677; 0.958861; 1" keySplines="0.486 0 0.282 1; 0.566 0 0.032 1; 0.461 0 0 1; 0.333 0 0.833 1; 0.167 0 0 1; 0.333 0 0.833 1; 0.167 0 0 1; 0 0 1 1" fill="freeze" /><g transform="translate(-440.317,-2525.854)"><g id="i27"><path fill="#91cddb" d="M508.225,2526.453C508.225,2526.453,383.358,2526.453,383.358,2526.453C376.252,2526.453,370.332,2521.445,368.619,2512.705C364.5,2491.688,361.131,2457.354,361.131,2424.958C361.131,2387.838,364.979,2358.607,369.555,2335.803C371.889,2324.173,378.124,2322.056,385.23,2322.056C385.23,2322.056,463.283,2322.056,463.283,2322.056C465.555,2322.056,467.73,2323.045,469.304,2324.796C469.304,2324.796,518.765,2379.554,518.765,2379.554C520.259,2381.215,520.309,2384.436,520.157,2386.734C519.378,2398.498,516.413,2413.461,516.413,2434.644C516.413,2470.153,520.314,2493.167,521.093,2512.705C521.396,2520.291,515.332,2526.453,508.225,2526.453Z" /></g></g></g></g></g><g id="i26"><g transform="translate(586.498,837.317)"><animateTransform repeatCount="indefinite" type="translate" attributeName="transform" dur="5.267s" begin="0s" calcMode="spline" values="586.498 837.317; 586.498 845.317; 586.498 827.317; 586.498 837.317; 586.498 843.317; 586.498 837.317; 586.498 843.317; 586.498 837.317; 586.498 837.317" keyTimes="0; 0.129747; 0.572785; 0.762659; 0.815801; 0.864851; 0.903677; 0.958861; 1" keySplines="0.486 0 0.282 1; 0.566 0 0.032 1; 0.461 0 0 1; 0.333 0 0 1; 0.333 0 0 1; 0.333 0 0 1; 0.333 0 0 1; 0 0 1 1" fill="freeze" /><g transform="scale(2.5,2.5)"><animateTransform repeatCount="indefinite" type="scale" attributeName="transform" dur="5.267s" begin="0s" calcMode="spline" values="2.5 2.5; 2.5 2.45; 2.5 2.55; 2.5 2.5; 2.5 2.45; 2.5 2.5; 2.5 2.45; 2.5 2.5; 2.5 2.5" keyTimes="0; 0.129747; 0.572785; 0.762659; 0.815801; 0.864851; 0.903677; 0.958861; 1" keySplines="0.486 0 0.282 1; 0.566 0 0.032 1; 0.461 0 0 1; 0.333 0 0.833 1; 0.167 0 0 1; 0.333 0 0.833 1; 0.167 0 0 1; 0 0 1 1" fill="freeze" /><g transform="translate(-440.317,-2525.854)"><g transform="matrix(1,0,0,1,0,0)" id="i28"><g id="i27"><path fill="#c6ebf4" d="M468.29,2323.656C468.29,2323.656,467.281,2335.512,467.281,2347.367C467.281,2352.592,467.029,2363.534,468.108,2368.819C469.181,2374.077,473.21,2378.03,478.224,2377.514C483.169,2377.005,487.413,2376.323,496.563,2376.323C506.789,2376.323,518.765,2379.554,518.765,2379.554C518.765,2379.554,468.29,2323.656,468.29,2323.656Z" /></g></g></g></g></g></g><g id="i26"><g transform="translate(586.498,837.317)"><animateTransform repeatCount="indefinite" type="translate" attributeName="transform" dur="5.267s" begin="0s" calcMode="spline" values="586.498 837.317; 586.498 845.317; 586.498 827.317; 586.498 837.317; 586.498 843.317; 586.498 837.317; 586.498 843.317; 586.498 837.317; 586.498 837.317" keyTimes="0; 0.129747; 0.572785; 0.762659; 0.815801; 0.864851; 0.903677; 0.958861; 1" keySplines="0.486 0 0.282 1; 0.566 0 0.032 1; 0.461 0 0 1; 0.333 0 0 1; 0.333 0 0 1; 0.333 0 0 1; 0.333 0 0 1; 0 0 1 1" fill="freeze" /><g transform="scale(2.5,2.5)"><animateTransform repeatCount="indefinite" type="scale" attributeName="transform" dur="5.267s" begin="0s" calcMode="spline" values="2.5 2.5; 2.5 2.45; 2.5 2.55; 2.5 2.5; 2.5 2.45; 2.5 2.5; 2.5 2.45; 2.5 2.5; 2.5 2.5" keyTimes="0; 0.129747; 0.572785; 0.762659; 0.815801; 0.864851; 0.903677; 0.958861; 1" keySplines="0.486 0 0.282 1; 0.566 0 0.032 1; 0.461 0 0 1; 0.333 0 0.833 1; 0.167 0 0 1; 0.333 0 0.833 1; 0.167 0 0 1; 0 0 1 1" fill="freeze" /><g transform="translate(-440.317,-2525.854)"><g id="i25"><g transform="translate(548.313,2441.455)"><animateTransform repeatCount="indefinite" type="translate" attributeName="transform" dur="5.267s" begin="0s" calcMode="spline" values="548.313 2441.455; 552.313 2449.618; 548.313 2407.73; 548.313 2441.455; 548.313 2444.516; 548.313 2441.455; 548.313 2444.515; 548.313 2441.455; 548.313 2441.455" keyTimes="0; 0.129747; 0.572785; 0.762659; 0.816456; 0.863924; 0.905063; 0.958861; 1" keySplines="0.603 0 0.257 1; 0.644 0 0.042 1; 0.582 0 0.028 1; 0.865 0 0.444 1; 0.198 0 0.505 1; 0.909 0 0.659 1; 0.139 0 0.405 1; 0 0 1 1" fill="freeze" /><g transform="rotate(-6) translate(0,0)"><g id="i29"><g transform="translate(0.428,1.409)"><g transform="rotate(-188.652)"><animateTransform repeatCount="indefinite" type="rotate" attributeName="transform" dur="5.267s" begin="0s" calcMode="spline" values="-188.652; -177.652; -192.652; -188.652; -184.652; -188.652; -184.652; -188.652; -188.652" keyTimes="0; 0.129747; 0.572785; 0.762659; 0.816456; 0.863924; 0.905063; 0.958861; 1" keySplines="0.333 0 0.667 1; 0.333 0 0.667 1; 0.333 0 0.667 1; 0.333 0 0.667 1; 0.333 0 0.667 1; 0.333 0 0.667 1; 0.333 0 0.667 1; 0 0 1 1" fill="freeze" /><g transform="scale(1,1.02) translate(-546.208,-2442.277)"><g id="i27" transform="matrix(1,0,0,1,-2.203,2.589)"><path fill="#705b62" d="M560.723,2422.482C559.83,2422.217,558.918,2422.399,558.201,2422.88C558.305,2421.358,557.255,2419.974,555.719,2419.716C554.838,2419.568,553.988,2419.833,553.342,2420.356C552.939,2419.401,552.064,2418.676,550.962,2418.538C550.443,2418.476,549.946,2418.56,549.494,2418.738C549.742,2415.171,550.03,2411.807,550.056,2411.53C550.224,2409.882,549.024,2408.409,547.376,2408.242C545.725,2408.081,544.256,2409.275,544.088,2410.922C544.061,2411.186,543.546,2417.184,543.285,2421.847C543.191,2423.518,543.082,2425.339,542.991,2426.844C541.273,2425.694,539.453,2424.846,538.974,2424.631C537.464,2423.948,535.69,2424.623,535.009,2426.134C534.328,2427.644,535,2429.419,536.509,2430.101C537.82,2430.694,540.034,2431.915,540.852,2432.774C543.25,2435.295,543.822,2437.093,543.825,2437.093C543.825,2437.093,543.825,2437.093,543.825,2437.092C544.045,2437.987,544.649,2438.683,545.416,2439.061C544.869,2441.753,551.069,2443.953,552.363,2440.707C553.887,2440.508,556.263,2439.88,558.257,2437.949C559.276,2436.962,559.95,2435.396,560.133,2434.94C560.167,2434.855,560.198,2434.768,560.223,2434.68C560.223,2434.68,562.743,2426.212,562.743,2426.212C563.216,2424.624,562.311,2422.954,560.723,2422.482Z" /></g></g></g></g></g></g></g></g></g></g></g></g><g id="i26"><g transform="translate(586.498,837.317)"><animateTransform repeatCount="indefinite" type="translate" attributeName="transform" dur="5.267s" begin="0s" calcMode="spline" values="586.498 837.317; 586.498 845.317; 586.498 827.317; 586.498 837.317; 586.498 843.317; 586.498 837.317; 586.498 843.317; 586.498 837.317; 586.498 837.317" keyTimes="0; 0.129747; 0.572785; 0.762659; 0.815801; 0.864851; 0.903677; 0.958861; 1" keySplines="0.486 0 0.282 1; 0.566 0 0.032 1; 0.461 0 0 1; 0.333 0 0 1; 0.333 0 0 1; 0.333 0 0 1; 0.333 0 0 1; 0 0 1 1" fill="freeze" /><g transform="scale(2.5,2.5)"><animateTransform repeatCount="indefinite" type="scale" attributeName="transform" dur="5.267s" begin="0s" calcMode="spline" values="2.5 2.5; 2.5 2.45; 2.5 2.55; 2.5 2.5; 2.5 2.45; 2.5 2.5; 2.5 2.45; 2.5 2.5; 2.5 2.5" keyTimes="0; 0.129747; 0.572785; 0.762659; 0.815801; 0.864851; 0.903677; 0.958861; 1" keySplines="0.486 0 0.282 1; 0.566 0 0.032 1; 0.461 0 0 1; 0.333 0 0.833 1; 0.167 0 0 1; 0.333 0 0.833 1; 0.167 0 0 1; 0 0 1 1" fill="freeze" /><g transform="translate(-440.317,-2525.854)"><g id="i19"><g transform="translate(309.749,2452.956)"><animateTransform repeatCount="indefinite" type="translate" attributeName="transform" dur="5.267s" begin="0s" calcMode="spline" values="309.749 2452.956; 304.949 2461.119; 300.949 2435.237; 309.749 2452.956; 309.749 2452.956" keyTimes="0; 0.129746; 0.572785; 0.762658; 1" keySplines="0.486 0 0.282 1; 0.566 0 0.032 1; 0.461 0 0 1; 0 0 1 1" fill="freeze" /><g transform="rotate(-6) translate(0,0)"><g transform="matrix(-0.693,-0.721,0.707,-0.679,-1517.242,1888.799)" id="i30"><g id="i31"><g id="i27"><path fill="#fcc658" d="M327.181,2474.69C327.181,2474.69,297.8,2464.175,297.8,2464.175C297.8,2464.175,320.503,2400.738,320.503,2400.738C320.503,2400.738,349.884,2411.253,349.884,2411.253C349.884,2411.253,327.181,2474.69,327.181,2474.69Z" /></g></g><g id="i32"><g id="i27"><path fill="#fcc658" d="M327.181,2474.69C327.181,2474.69,297.8,2464.175,297.8,2464.175C297.8,2464.175,301.085,2494.882,301.085,2494.882C301.328,2497.455,306.823,2497.062,308.578,2495.165C308.578,2495.165,327.181,2474.69,327.181,2474.69Z" /></g></g><g id="i33"><g id="i27"><path fill="#ea8692" d="M348.106,2382.872C348.106,2382.872,339.885,2379.929,339.885,2379.929C334.042,2377.838,327.609,2380.88,325.518,2386.723C325.518,2386.723,320.503,2400.738,320.503,2400.738C320.503,2400.738,349.884,2411.253,349.884,2411.253C349.884,2411.253,354.9,2397.238,354.9,2397.238C356.991,2391.395,353.949,2384.963,348.106,2382.872Z" /></g></g><g id="i27"><g id="i27"><path fill="#705b62" d="M314.35,2488.804C314.35,2488.804,306.767,2497.069,306.767,2497.069C304.719,2499.301,300.995,2498.05,300.709,2495.034C300.709,2495.034,299.621,2483.544,299.621,2483.544C299.621,2483.544,314.35,2488.804,314.35,2488.804Z" /></g></g></g></g></g></g></g></g></g></g><g id="i26"><g transform="translate(586.498,837.317)"><animateTransform repeatCount="indefinite" type="translate" attributeName="transform" dur="5.267s" begin="0s" calcMode="spline" values="586.498 837.317; 586.498 845.317; 586.498 827.317; 586.498 837.317; 586.498 843.317; 586.498 837.317; 586.498 843.317; 586.498 837.317; 586.498 837.317" keyTimes="0; 0.129747; 0.572785; 0.762659; 0.815801; 0.864851; 0.903677; 0.958861; 1" keySplines="0.486 0 0.282 1; 0.566 0 0.032 1; 0.461 0 0 1; 0.333 0 0 1; 0.333 0 0 1; 0.333 0 0 1; 0.333 0 0 1; 0 0 1 1" fill="freeze" /><g transform="scale(2.5,2.5)"><animateTransform repeatCount="indefinite" type="scale" attributeName="transform" dur="5.267s" begin="0s" calcMode="spline" values="2.5 2.5; 2.5 2.45; 2.5 2.55; 2.5 2.5; 2.5 2.45; 2.5 2.5; 2.5 2.45; 2.5 2.5; 2.5 2.5" keyTimes="0; 0.129747; 0.572785; 0.762659; 0.815801; 0.864851; 0.903677; 0.958861; 1" keySplines="0.486 0 0.282 1; 0.566 0 0.032 1; 0.461 0 0 1; 0.333 0 0.833 1; 0.167 0 0 1; 0.333 0 0.833 1; 0.167 0 0 1; 0 0 1 1" fill="freeze" /><g transform="translate(-440.317,-2525.854)"><g id="i19"><g transform="translate(309.749,2452.956)"><animateTransform repeatCount="indefinite" type="translate" attributeName="transform" dur="5.267s" begin="0s" calcMode="spline" values="309.749 2452.956; 304.949 2461.119; 300.949 2435.237; 309.749 2452.956; 309.749 2452.956" keyTimes="0; 0.129746; 0.572785; 0.762658; 1" keySplines="0.486 0 0.282 1; 0.566 0 0.032 1; 0.461 0 0 1; 0 0 1 1" fill="freeze" /><g transform="rotate(-6) translate(0,0)"><g transform="matrix(-0.693,-0.721,0.707,-0.679,-1517.242,1888.799)" id="i34"><g id="i27"><path fill="#705b62" d="M319.416,2434.868C319.416,2434.868,317.514,2434.039,317.514,2434.039C317.708,2434.077,317.903,2434.111,318.094,2434.111C319.439,2434.111,320.663,2433.199,321.004,2431.836C321.404,2430.229,320.426,2428.6,318.819,2428.199C318.819,2428.199,310.388,2426.095,310.388,2426.095C308.773,2425.696,307.152,2426.673,306.751,2428.28C306.606,2428.861,306.646,2429.443,306.826,2429.971C305.896,2430.157,305.069,2430.776,304.662,2431.712C304.247,2432.664,304.365,2433.713,304.884,2434.526C303.678,2434.49,302.518,2435.179,302.023,2436.36C301.411,2437.825,302.057,2439.487,303.454,2440.187C302.665,2440.366,301.948,2440.852,301.512,2441.61C300.687,2443.047,301.183,2444.881,302.621,2445.705C302.621,2445.705,310.008,2449.945,310.008,2449.945C310.479,2450.216,310.991,2450.344,311.498,2450.344C312.537,2450.344,313.547,2449.803,314.102,2448.836C314.927,2447.399,314.432,2445.566,312.994,2444.742C312.994,2444.742,309.487,2442.729,309.487,2442.729C309.487,2442.729,315.275,2445.146,315.275,2445.146C315.653,2445.303,316.044,2445.378,316.43,2445.378C317.604,2445.378,318.719,2444.685,319.2,2443.534C319.63,2442.505,319.432,2441.379,318.798,2440.554C319.73,2440.369,320.559,2439.753,320.967,2438.816C321.629,2437.296,320.935,2435.529,319.416,2434.868Z" /></g></g></g></g></g></g></g></g></g><g id="i26"><g transform="translate(586.498,837.317)"><animateTransform repeatCount="indefinite" type="translate" attributeName="transform" dur="5.267s" begin="0s" calcMode="spline" values="586.498 837.317; 586.498 845.317; 586.498 827.317; 586.498 837.317; 586.498 843.317; 586.498 837.317; 586.498 843.317; 586.498 837.317; 586.498 837.317" keyTimes="0; 0.129747; 0.572785; 0.762659; 0.815801; 0.864851; 0.903677; 0.958861; 1" keySplines="0.486 0 0.282 1; 0.566 0 0.032 1; 0.461 0 0 1; 0.333 0 0 1; 0.333 0 0 1; 0.333 0 0 1; 0.333 0 0 1; 0 0 1 1" fill="freeze" /><g transform="scale(2.5,2.5)"><animateTransform repeatCount="indefinite" type="scale" attributeName="transform" dur="5.267s" begin="0s" calcMode="spline" values="2.5 2.5; 2.5 2.45; 2.5 2.55; 2.5 2.5; 2.5 2.45; 2.5 2.5; 2.5 2.45; 2.5 2.5; 2.5 2.5" keyTimes="0; 0.129747; 0.572785; 0.762659; 0.815801; 0.864851; 0.903677; 0.958861; 1" keySplines="0.486 0 0.282 1; 0.566 0 0.032 1; 0.461 0 0 1; 0.333 0 0.833 1; 0.167 0 0 1; 0.333 0 0.833 1; 0.167 0 0 1; 0 0 1 1" fill="freeze" /><g transform="translate(-440.317,-2525.854)"><g id="i35"><g transform="translate(455.924,2478.459)"><animateTransform repeatCount="indefinite" type="translate" attributeName="transform" dur="5.267s" begin="0s" calcMode="spline" values="455.924 2478.459; 455.924 2483.357; 455.924 2474.729; 455.924 2478.459; 455.924 2481.724; 455.924 2478.459; 455.924 2481.724; 455.924 2478.459; 455.924 2478.459" keyTimes="0; 0.129747; 0.572785; 0.762659; 0.816456; 0.863924; 0.901899; 0.958861; 1" keySplines="0.486 0 0.282 1; 0.566 0 0.032 1; 0.461 0 0 1; 0.333 0 0 1; 0.333 0 0 1; 0.333 0 0 1; 0.333 0 0 1; 0 0 1 1" fill="freeze" /><g transform="rotate(4) scale(0.4,0.4) translate(0,0)"><g transform="matrix(2.494,-0.174,0.174,2.494,-202.589,-83.751)" id="i36"><g id="i27"><ellipse ry="9.694" rx="9.694" cy="0" cx="0" fill="#fcded8" /></g></g></g></g></g></g></g></g></g><g id="i26"><g transform="translate(586.498,837.317)"><animateTransform repeatCount="indefinite" type="translate" attributeName="transform" dur="5.267s" begin="0s" calcMode="spline" values="586.498 837.317; 586.498 845.317; 586.498 827.317; 586.498 837.317; 586.498 843.317; 586.498 837.317; 586.498 843.317; 586.498 837.317; 586.498 837.317" keyTimes="0; 0.129747; 0.572785; 0.762659; 0.815801; 0.864851; 0.903677; 0.958861; 1" keySplines="0.486 0 0.282 1; 0.566 0 0.032 1; 0.461 0 0 1; 0.333 0 0 1; 0.333 0 0 1; 0.333 0 0 1; 0.333 0 0 1; 0 0 1 1" fill="freeze" /><g transform="scale(2.5,2.5)"><animateTransform repeatCount="indefinite" type="scale" attributeName="transform" dur="5.267s" begin="0s" calcMode="spline" values="2.5 2.5; 2.5 2.45; 2.5 2.55; 2.5 2.5; 2.5 2.45; 2.5 2.5; 2.5 2.45; 2.5 2.5; 2.5 2.5" keyTimes="0; 0.129747; 0.572785; 0.762659; 0.815801; 0.864851; 0.903677; 0.958861; 1" keySplines="0.486 0 0.282 1; 0.566 0 0.032 1; 0.461 0 0 1; 0.333 0 0.833 1; 0.167 0 0 1; 0.333 0 0.833 1; 0.167 0 0 1; 0 0 1 1" fill="freeze" /><g transform="translate(-440.317,-2525.854)"><g id="i35"><g transform="translate(455.924,2478.459)"><animateTransform repeatCount="indefinite" type="translate" attributeName="transform" dur="5.267s" begin="0s" calcMode="spline" values="455.924 2478.459; 455.924 2483.357; 455.924 2474.729; 455.924 2478.459; 455.924 2481.724; 455.924 2478.459; 455.924 2481.724; 455.924 2478.459; 455.924 2478.459" keyTimes="0; 0.129747; 0.572785; 0.762659; 0.816456; 0.863924; 0.901899; 0.958861; 1" keySplines="0.486 0 0.282 1; 0.566 0 0.032 1; 0.461 0 0 1; 0.333 0 0 1; 0.333 0 0 1; 0.333 0 0 1; 0.333 0 0 1; 0 0 1 1" fill="freeze" /><g transform="rotate(4) scale(0.4,0.4) translate(0,0)"><g transform="matrix(2.494,-0.174,0.174,2.494,105.792,-121.267)" id="i37"><g id="i27"><ellipse ry="9.694" rx="9.694" cy="0" cx="0" fill="#fcded8" /></g></g></g></g></g></g></g></g></g><g id="i26"><g transform="translate(586.498,837.317)"><animateTransform repeatCount="indefinite" type="translate" attributeName="transform" dur="5.267s" begin="0s" calcMode="spline" values="586.498 837.317; 586.498 845.317; 586.498 827.317; 586.498 837.317; 586.498 843.317; 586.498 837.317; 586.498 843.317; 586.498 837.317; 586.498 837.317" keyTimes="0; 0.129747; 0.572785; 0.762659; 0.815801; 0.864851; 0.903677; 0.958861; 1" keySplines="0.486 0 0.282 1; 0.566 0 0.032 1; 0.461 0 0 1; 0.333 0 0 1; 0.333 0 0 1; 0.333 0 0 1; 0.333 0 0 1; 0 0 1 1" fill="freeze" /><g transform="scale(2.5,2.5)"><animateTransform repeatCount="indefinite" type="scale" attributeName="transform" dur="5.267s" begin="0s" calcMode="spline" values="2.5 2.5; 2.5 2.45; 2.5 2.55; 2.5 2.5; 2.5 2.45; 2.5 2.5; 2.5 2.45; 2.5 2.5; 2.5 2.5" keyTimes="0; 0.129747; 0.572785; 0.762659; 0.815801; 0.864851; 0.903677; 0.958861; 1" keySplines="0.486 0 0.282 1; 0.566 0 0.032 1; 0.461 0 0 1; 0.333 0 0.833 1; 0.167 0 0 1; 0.333 0 0.833 1; 0.167 0 0 1; 0 0 1 1" fill="freeze" /><g transform="translate(-440.317,-2525.854)"><g id="i35"><g transform="translate(455.924,2478.459)"><animateTransform repeatCount="indefinite" type="translate" attributeName="transform" dur="5.267s" begin="0s" calcMode="spline" values="455.924 2478.459; 455.924 2483.357; 455.924 2474.729; 455.924 2478.459; 455.924 2481.724; 455.924 2478.459; 455.924 2481.724; 455.924 2478.459; 455.924 2478.459" keyTimes="0; 0.129747; 0.572785; 0.762659; 0.816456; 0.863924; 0.901899; 0.958861; 1" keySplines="0.486 0 0.282 1; 0.566 0 0.032 1; 0.461 0 0 1; 0.333 0 0 1; 0.333 0 0 1; 0.333 0 0 1; 0.333 0 0 1; 0 0 1 1" fill="freeze" /><g transform="rotate(4) scale(0.4,0.4) translate(0,0)"><g transform="matrix(2.494,-0.174,0.174,2.494,972.205,-13.046)" id="i38"><g id="i27"><path fill="#ffffff" d="M-375.729,-111.962C-391.336,-111.962,-404.066,-99.443,-404.425,-83.92C-406.243,-84.233,-407.955,-84.119,-409.451,-83.814C-409.872,-99.158,-422.476,-111.513,-437.919,-111.513C-453.628,-111.513,-466.409,-98.733,-466.409,-83.025C-466.409,-67.316,-453.628,-54.536,-437.919,-54.536C-424.556,-54.536,-413.319,-63.787,-410.259,-76.22C-409.024,-76.835,-406.29,-77.81,-403.574,-76.245C-400.439,-63.787,-389.146,-54.536,-375.729,-54.536C-359.896,-54.536,-347.015,-67.416,-347.015,-83.249C-347.015,-99.082,-359.896,-111.962,-375.729,-111.962ZM-437.919,-61.536C-449.769,-61.536,-459.409,-71.176,-459.409,-83.025C-459.409,-94.874,-449.769,-104.513,-437.919,-104.513C-426.07,-104.513,-416.431,-94.874,-416.431,-83.025C-416.431,-71.176,-426.07,-61.536,-437.919,-61.536ZM-375.729,-61.536C-387.702,-61.536,-397.442,-71.276,-397.442,-83.249C-397.442,-95.222,-387.702,-104.962,-375.729,-104.962C-363.756,-104.962,-354.015,-95.222,-354.015,-83.249C-354.015,-71.276,-363.756,-61.536,-375.729,-61.536Z" /></g></g></g></g></g></g></g></g></g><g id="i26"><g transform="translate(586.498,837.317)"><animateTransform repeatCount="indefinite" type="translate" attributeName="transform" dur="5.267s" begin="0s" calcMode="spline" values="586.498 837.317; 586.498 845.317; 586.498 827.317; 586.498 837.317; 586.498 843.317; 586.498 837.317; 586.498 843.317; 586.498 837.317; 586.498 837.317" keyTimes="0; 0.129747; 0.572785; 0.762659; 0.815801; 0.864851; 0.903677; 0.958861; 1" keySplines="0.486 0 0.282 1; 0.566 0 0.032 1; 0.461 0 0 1; 0.333 0 0 1; 0.333 0 0 1; 0.333 0 0 1; 0.333 0 0 1; 0 0 1 1" fill="freeze" /><g transform="scale(2.5,2.5)"><animateTransform repeatCount="indefinite" type="scale" attributeName="transform" dur="5.267s" begin="0s" calcMode="spline" values="2.5 2.5; 2.5 2.45; 2.5 2.55; 2.5 2.5; 2.5 2.45; 2.5 2.5; 2.5 2.45; 2.5 2.5; 2.5 2.5" keyTimes="0; 0.129747; 0.572785; 0.762659; 0.815801; 0.864851; 0.903677; 0.958861; 1" keySplines="0.486 0 0.282 1; 0.566 0 0.032 1; 0.461 0 0 1; 0.333 0 0.833 1; 0.167 0 0 1; 0.333 0 0.833 1; 0.167 0 0 1; 0 0 1 1" fill="freeze" /><g transform="translate(-440.317,-2525.854)"><g id="i35"><g transform="translate(455.924,2478.459)"><animateTransform repeatCount="indefinite" type="translate" attributeName="transform" dur="5.267s" begin="0s" calcMode="spline" values="455.924 2478.459; 455.924 2483.357; 455.924 2474.729; 455.924 2478.459; 455.924 2481.724; 455.924 2478.459; 455.924 2481.724; 455.924 2478.459; 455.924 2478.459" keyTimes="0; 0.129747; 0.572785; 0.762659; 0.816456; 0.863924; 0.901899; 0.958861; 1" keySplines="0.486 0 0.282 1; 0.566 0 0.032 1; 0.461 0 0 1; 0.333 0 0 1; 0.333 0 0 1; 0.333 0 0 1; 0.333 0 0 1; 0 0 1 1" fill="freeze" /><g transform="rotate(4) scale(0.4,0.4) translate(0,0)"><g id="i39"><g transform="translate(-2.402,-279.098)"><animateTransform repeatCount="indefinite" type="translate" attributeName="transform" dur="5.267s" begin="0s" calcMode="spline" values="-2.402 -279.098; -1.69 -268.919; -3.742 -298.259; -2.402 -279.098; -1.69 -268.92; -2.402 -279.098; -1.69 -268.92; -2.402 -279.098; -2.402 -279.098" keyTimes="0; 0.129747; 0.572785; 0.762658; 0.816456; 0.863924; 0.917722; 0.96519; 1" keySplines="0.333 0 0.667 1; 0.541 0 0.108 1; 0.616 0 0.217 1; 0.333 0 0.667 1; 0.333 0 0.667 1; 0.333 0 0.667 1; 0.333 0 0.667 1; 0 0 1 1" fill="freeze" /><g transform="rotate(-4) scale(2.5,2.5) translate(381.47,125.356)"><g id="i27"><path fill="#705b62" d="M-373.825,-119.001C-374.98,-119.001,-376.111,-119.573,-376.779,-120.62C-377.489,-121.734,-381.341,-127.12,-387.334,-123.636C-388.993,-122.671,-391.136,-123.213,-392.117,-124.866C-393.097,-126.517,-392.579,-128.642,-390.936,-129.638C-386.092,-132.573,-376.753,-133.595,-370.876,-124.383C-369.837,-122.754,-370.316,-120.59,-371.946,-119.551C-372.529,-119.179,-373.18,-119.001,-373.825,-119.001Z" /></g></g></g></g></g></g></g></g></g></g></g><g id="i26"><g transform="translate(586.498,837.317)"><animateTransform repeatCount="indefinite" type="translate" attributeName="transform" dur="5.267s" begin="0s" calcMode="spline" values="586.498 837.317; 586.498 845.317; 586.498 827.317; 586.498 837.317; 586.498 843.317; 586.498 837.317; 586.498 843.317; 586.498 837.317; 586.498 837.317" keyTimes="0; 0.129747; 0.572785; 0.762659; 0.815801; 0.864851; 0.903677; 0.958861; 1" keySplines="0.486 0 0.282 1; 0.566 0 0.032 1; 0.461 0 0 1; 0.333 0 0 1; 0.333 0 0 1; 0.333 0 0 1; 0.333 0 0 1; 0 0 1 1" fill="freeze" /><g transform="scale(2.5,2.5)"><animateTransform repeatCount="indefinite" type="scale" attributeName="transform" dur="5.267s" begin="0s" calcMode="spline" values="2.5 2.5; 2.5 2.45; 2.5 2.55; 2.5 2.5; 2.5 2.45; 2.5 2.5; 2.5 2.45; 2.5 2.5; 2.5 2.5" keyTimes="0; 0.129747; 0.572785; 0.762659; 0.815801; 0.864851; 0.903677; 0.958861; 1" keySplines="0.486 0 0.282 1; 0.566 0 0.032 1; 0.461 0 0 1; 0.333 0 0.833 1; 0.167 0 0 1; 0.333 0 0.833 1; 0.167 0 0 1; 0 0 1 1" fill="freeze" /><g transform="translate(-440.317,-2525.854)"><g id="i35"><g transform="translate(455.924,2478.459)"><animateTransform repeatCount="indefinite" type="translate" attributeName="transform" dur="5.267s" begin="0s" calcMode="spline" values="455.924 2478.459; 455.924 2483.357; 455.924 2474.729; 455.924 2478.459; 455.924 2481.724; 455.924 2478.459; 455.924 2481.724; 455.924 2478.459; 455.924 2478.459" keyTimes="0; 0.129747; 0.572785; 0.762659; 0.816456; 0.863924; 0.901899; 0.958861; 1" keySplines="0.486 0 0.282 1; 0.566 0 0.032 1; 0.461 0 0 1; 0.333 0 0 1; 0.333 0 0 1; 0.333 0 0 1; 0.333 0 0 1; 0 0 1 1" fill="freeze" /><g transform="rotate(4) scale(0.4,0.4) translate(0,0)"><g id="i40"><g transform="translate(-108.729,-277.957)"><animateTransform repeatCount="indefinite" type="translate" attributeName="transform" dur="5.267s" begin="0s" calcMode="spline" values="-108.729 -277.957; -108.017 -267.778; -110.069 -297.118; -108.729 -277.957; -108.017 -267.778; -108.729 -277.957; -108.017 -267.778; -108.729 -277.957; -108.729 -277.957" keyTimes="0; 0.129747; 0.572785; 0.762658; 0.816456; 0.863924; 0.917722; 0.96519; 1" keySplines="0.333 0 0.667 1; 0.541 0 0.108 1; 0.616 0 0.217 1; 0.333 0 0.667 1; 0.333 0 0.667 1; 0.333 0 0.667 1; 0.333 0 0.667 1; 0 0 1 1" fill="freeze" /><g transform="rotate(-4) scale(2.5,2.5) translate(423.929,127.867)"><g id="i27"><path fill="#705b62" d="M-431.173,-122.528C-431.954,-122.528,-432.741,-122.788,-433.392,-123.323C-434.886,-124.549,-435.103,-126.755,-433.876,-128.249C-428.064,-135.33,-419.041,-133.339,-415.082,-131.297C-413.364,-130.411,-412.689,-128.301,-413.576,-126.583C-414.46,-124.87,-416.561,-124.194,-418.278,-125.069C-418.59,-125.225,-424.821,-128.248,-428.466,-123.807C-429.157,-122.964,-430.161,-122.528,-431.173,-122.528Z" /></g></g></g></g></g></g></g></g></g></g></g><g id="i26"><g transform="translate(586.498,837.317)"><animateTransform repeatCount="indefinite" type="translate" attributeName="transform" dur="5.267s" begin="0s" calcMode="spline" values="586.498 837.317; 586.498 845.317; 586.498 827.317; 586.498 837.317; 586.498 843.317; 586.498 837.317; 586.498 843.317; 586.498 837.317; 586.498 837.317" keyTimes="0; 0.129747; 0.572785; 0.762659; 0.815801; 0.864851; 0.903677; 0.958861; 1" keySplines="0.486 0 0.282 1; 0.566 0 0.032 1; 0.461 0 0 1; 0.333 0 0 1; 0.333 0 0 1; 0.333 0 0 1; 0.333 0 0 1; 0 0 1 1" fill="freeze" /><g transform="scale(2.5,2.5)"><animateTransform repeatCount="indefinite" type="scale" attributeName="transform" dur="5.267s" begin="0s" calcMode="spline" values="2.5 2.5; 2.5 2.45; 2.5 2.55; 2.5 2.5; 2.5 2.45; 2.5 2.5; 2.5 2.45; 2.5 2.5; 2.5 2.5" keyTimes="0; 0.129747; 0.572785; 0.762659; 0.815801; 0.864851; 0.903677; 0.958861; 1" keySplines="0.486 0 0.282 1; 0.566 0 0.032 1; 0.461 0 0 1; 0.333 0 0.833 1; 0.167 0 0 1; 0.333 0 0.833 1; 0.167 0 0 1; 0 0 1 1" fill="freeze" /><g transform="translate(-440.317,-2525.854)"><g id="i35"><g transform="translate(455.924,2478.459)"><animateTransform repeatCount="indefinite" type="translate" attributeName="transform" dur="5.267s" begin="0s" calcMode="spline" values="455.924 2478.459; 455.924 2483.357; 455.924 2474.729; 455.924 2478.459; 455.924 2481.724; 455.924 2478.459; 455.924 2481.724; 455.924 2478.459; 455.924 2478.459" keyTimes="0; 0.129747; 0.572785; 0.762659; 0.816456; 0.863924; 0.901899; 0.958861; 1" keySplines="0.486 0 0.282 1; 0.566 0 0.032 1; 0.461 0 0 1; 0.333 0 0 1; 0.333 0 0 1; 0.333 0 0 1; 0.333 0 0 1; 0 0 1 1" fill="freeze" /><g transform="rotate(4) scale(0.4,0.4) translate(0,0)"><g transform="matrix(2.494,-0.174,0.174,2.494,972.622,-7.075)" id="i41"><g id="i27"><path fill="#705b62" d="M-349.155,-56.467C-349.155,-56.467,-356.772,-62.317,-356.772,-62.317C-358.308,-63.496,-360.503,-63.205,-361.68,-61.673C-362.23,-60.956,-362.448,-60.094,-362.38,-59.259C-362.812,-59.084,-363.216,-58.821,-363.562,-58.468C-363.689,-58.338,-376.524,-45.471,-398.858,-42.814C-420.035,-40.29,-436.618,-49.767,-436.784,-49.863C-438.453,-50.836,-440.593,-50.276,-441.569,-48.611C-442.547,-46.944,-441.987,-44.799,-440.32,-43.821C-439.658,-43.432,-425.673,-35.38,-406.223,-35.38C-403.587,-35.38,-400.848,-35.528,-398.032,-35.863C-373.121,-38.826,-359.127,-52.986,-358.544,-53.587C-358.303,-53.836,-358.122,-54.118,-357.969,-54.41C-357.969,-54.41,-353.418,-50.916,-353.418,-50.916C-352.782,-50.428,-352.032,-50.191,-351.289,-50.191C-350.238,-50.191,-349.199,-50.663,-348.51,-51.56C-347.333,-53.093,-347.622,-55.29,-349.155,-56.467Z" /></g></g></g></g></g></g></g></g></g><g id="i26"><g transform="translate(586.498,837.317)"><animateTransform repeatCount="indefinite" type="translate" attributeName="transform" dur="5.267s" begin="0s" calcMode="spline" values="586.498 837.317; 586.498 845.317; 586.498 827.317; 586.498 837.317; 586.498 843.317; 586.498 837.317; 586.498 843.317; 586.498 837.317; 586.498 837.317" keyTimes="0; 0.129747; 0.572785; 0.762659; 0.815801; 0.864851; 0.903677; 0.958861; 1" keySplines="0.486 0 0.282 1; 0.566 0 0.032 1; 0.461 0 0 1; 0.333 0 0 1; 0.333 0 0 1; 0.333 0 0 1; 0.333 0 0 1; 0 0 1 1" fill="freeze" /><g transform="scale(2.5,2.5)"><animateTransform repeatCount="indefinite" type="scale" attributeName="transform" dur="5.267s" begin="0s" calcMode="spline" values="2.5 2.5; 2.5 2.45; 2.5 2.55; 2.5 2.5; 2.5 2.45; 2.5 2.5; 2.5 2.45; 2.5 2.5; 2.5 2.5" keyTimes="0; 0.129747; 0.572785; 0.762659; 0.815801; 0.864851; 0.903677; 0.958861; 1" keySplines="0.486 0 0.282 1; 0.566 0 0.032 1; 0.461 0 0 1; 0.333 0 0.833 1; 0.167 0 0 1; 0.333 0 0.833 1; 0.167 0 0 1; 0 0 1 1" fill="freeze" /><g transform="translate(-440.317,-2525.854)"><g id="i35"><g transform="translate(455.924,2478.459)"><animateTransform repeatCount="indefinite" type="translate" attributeName="transform" dur="5.267s" begin="0s" calcMode="spline" values="455.924 2478.459; 455.924 2483.357; 455.924 2474.729; 455.924 2478.459; 455.924 2481.724; 455.924 2478.459; 455.924 2481.724; 455.924 2478.459; 455.924 2478.459" keyTimes="0; 0.129747; 0.572785; 0.762659; 0.816456; 0.863924; 0.901899; 0.958861; 1" keySplines="0.486 0 0.282 1; 0.566 0 0.032 1; 0.461 0 0 1; 0.333 0 0 1; 0.333 0 0 1; 0.333 0 0 1; 0.333 0 0 1; 0 0 1 1" fill="freeze" /><g transform="rotate(4) scale(0.4,0.4) translate(0,0)"><g id="i42"><g transform="translate(0.154,-146.317) rotate(-4)"><g transform="scale(2.5,2.5)"><animateTransform repeatCount="indefinite" type="scale" attributeName="transform" dur="5.267s" begin="0s" calcMode="spline" values="2.5 2.5; 2.5 2.5; 2.5 0.35; 2.5 2.5; 2.5 0.35; 2.5 2.5; 2.5 2.5" keyTimes="0; 0.76675; 0.815801; 0.862801; 0.901639; 0.958861; 1" keySplines="0 0 1 1; 0.855 0 0 1; 0.657 0 0.221 1; 0.333 0 0 1; 0.611 0 0.175 1; 0 0 1 1" fill="freeze" /><g transform="translate(384.154,80.301)"><g id="i27"><path fill="#705b62" d="M-378.064,-80.13C-378.198,-75.377,-381.032,-71.6,-384.396,-71.695C-387.76,-71.79,-390.379,-75.719,-390.245,-80.472C-390.111,-85.225,-387.276,-89.002,-383.912,-88.907C-380.548,-88.812,-377.93,-84.883,-378.064,-80.13Z" /></g></g></g></g></g></g></g></g></g></g></g></g><g id="i26"><g transform="translate(586.498,837.317)"><animateTransform repeatCount="indefinite" type="translate" attributeName="transform" dur="5.267s" begin="0s" calcMode="spline" values="586.498 837.317; 586.498 845.317; 586.498 827.317; 586.498 837.317; 586.498 843.317; 586.498 837.317; 586.498 843.317; 586.498 837.317; 586.498 837.317" keyTimes="0; 0.129747; 0.572785; 0.762659; 0.815801; 0.864851; 0.903677; 0.958861; 1" keySplines="0.486 0 0.282 1; 0.566 0 0.032 1; 0.461 0 0 1; 0.333 0 0 1; 0.333 0 0 1; 0.333 0 0 1; 0.333 0 0 1; 0 0 1 1" fill="freeze" /><g transform="scale(2.5,2.5)"><animateTransform repeatCount="indefinite" type="scale" attributeName="transform" dur="5.267s" begin="0s" calcMode="spline" values="2.5 2.5; 2.5 2.45; 2.5 2.55; 2.5 2.5; 2.5 2.45; 2.5 2.5; 2.5 2.45; 2.5 2.5; 2.5 2.5" keyTimes="0; 0.129747; 0.572785; 0.762659; 0.815801; 0.864851; 0.903677; 0.958861; 1" keySplines="0.486 0 0.282 1; 0.566 0 0.032 1; 0.461 0 0 1; 0.333 0 0.833 1; 0.167 0 0 1; 0.333 0 0.833 1; 0.167 0 0 1; 0 0 1 1" fill="freeze" /><g transform="translate(-440.317,-2525.854)"><g id="i35"><g transform="translate(455.924,2478.459)"><animateTransform repeatCount="indefinite" type="translate" attributeName="transform" dur="5.267s" begin="0s" calcMode="spline" values="455.924 2478.459; 455.924 2483.357; 455.924 2474.729; 455.924 2478.459; 455.924 2481.724; 455.924 2478.459; 455.924 2481.724; 455.924 2478.459; 455.924 2478.459" keyTimes="0; 0.129747; 0.572785; 0.762659; 0.816456; 0.863924; 0.901899; 0.958861; 1" keySplines="0.486 0 0.282 1; 0.566 0 0.032 1; 0.461 0 0 1; 0.333 0 0 1; 0.333 0 0 1; 0.333 0 0 1; 0.333 0 0 1; 0 0 1 1" fill="freeze" /><g transform="rotate(4) scale(0.4,0.4) translate(0,0)"><g id="i43"><g transform="translate(-119.957,-139.798) rotate(-4)"><g transform="scale(2.5,2.5)"><animateTransform repeatCount="indefinite" type="scale" attributeName="transform" dur="5.267s" begin="0s" calcMode="spline" values="2.5 2.5; 2.5 2.5; 2.5 0.35; 2.5 2.5; 2.5 0.35; 2.5 2.5; 2.5 2.5" keyTimes="0; 0.76675; 0.815801; 0.862801; 0.901639; 0.958861; 1" keySplines="0 0 1 1; 0.855 0 0 1; 0.657 0 0.221 1; 0.333 0 0 1; 0.611 0 0.175 1; 0 0 1 1" fill="freeze" /><g transform="translate(432.264,81.051)"><g id="i27"><path fill="#705b62" d="M-426.265,-80.882C-426.399,-76.129,-429.193,-72.352,-432.506,-72.445C-435.819,-72.538,-438.396,-76.467,-438.262,-81.22C-438.128,-85.973,-435.335,-89.75,-432.022,-89.657C-428.709,-89.564,-426.131,-85.635,-426.265,-80.882Z" /></g></g></g></g></g></g></g></g></g></g></g></g><g id="i26"><g transform="translate(586.498,837.317)"><animateTransform repeatCount="indefinite" type="translate" attributeName="transform" dur="5.267s" begin="0s" calcMode="spline" values="586.498 837.317; 586.498 845.317; 586.498 827.317; 586.498 837.317; 586.498 843.317; 586.498 837.317; 586.498 843.317; 586.498 837.317; 586.498 837.317" keyTimes="0; 0.129747; 0.572785; 0.762659; 0.815801; 0.864851; 0.903677; 0.958861; 1" keySplines="0.486 0 0.282 1; 0.566 0 0.032 1; 0.461 0 0 1; 0.333 0 0 1; 0.333 0 0 1; 0.333 0 0 1; 0.333 0 0 1; 0 0 1 1" fill="freeze" /><g transform="scale(2.5,2.5)"><animateTransform repeatCount="indefinite" type="scale" attributeName="transform" dur="5.267s" begin="0s" calcMode="spline" values="2.5 2.5; 2.5 2.45; 2.5 2.55; 2.5 2.5; 2.5 2.45; 2.5 2.5; 2.5 2.45; 2.5 2.5; 2.5 2.5" keyTimes="0; 0.129747; 0.572785; 0.762659; 0.815801; 0.864851; 0.903677; 0.958861; 1" keySplines="0.486 0 0.282 1; 0.566 0 0.032 1; 0.461 0 0 1; 0.333 0 0.833 1; 0.167 0 0 1; 0.333 0 0.833 1; 0.167 0 0 1; 0 0 1 1" fill="freeze" /><g transform="translate(-440.317,-2525.854)"><g id="i35"><g transform="translate(455.924,2478.459)"><animateTransform repeatCount="indefinite" type="translate" attributeName="transform" dur="5.267s" begin="0s" calcMode="spline" values="455.924 2478.459; 455.924 2483.357; 455.924 2474.729; 455.924 2478.459; 455.924 2481.724; 455.924 2478.459; 455.924 2481.724; 455.924 2478.459; 455.924 2478.459" keyTimes="0; 0.129747; 0.572785; 0.762659; 0.816456; 0.863924; 0.901899; 0.958861; 1" keySplines="0.486 0 0.282 1; 0.566 0 0.032 1; 0.461 0 0 1; 0.333 0 0 1; 0.333 0 0 1; 0.333 0 0 1; 0.333 0 0 1; 0 0 1 1" fill="freeze" /><g transform="rotate(4) scale(0.4,0.4) translate(0,0)" /></g></g></g></g></g></g><g transform="matrix(1,0,0,1,-682,4156)" id="i44" /><g transform="matrix(6.247,0.205,-0.205,6.247,-11755.492,17345.385)" id="i45"><g id="i27"><path fill="#705b62" d="M1230.369,-1907.103C1229.4,-1907.103,1228.435,-1907.503,1227.744,-1908.287C1226.465,-1909.737,1226.603,-1911.948,1228.052,-1913.227C1228.551,-1913.667,1240.423,-1924.004,1256.146,-1923.296C1258.077,-1923.208,1259.571,-1921.572,1259.483,-1919.641C1259.395,-1917.71,1257.789,-1916.217,1255.828,-1916.303C1242.959,-1916.894,1232.784,-1908.067,1232.683,-1907.978C1232.018,-1907.391,1231.192,-1907.103,1230.369,-1907.103Z" /></g></g></svg>