<svg fill="none" height="100%" width="100%" viewBox="0 0 176 176" xmlns:xlink="http://www.w3.org/1999/xlink" xmlns="http://www.w3.org/2000/svg"><defs><clipPath id="i0"><rect height="176" width="176" y="0" x="0" /></clipPath><clipPath id="i1"><rect height="130" width="100" y="0" x="0" /></clipPath><g id="i2"><g id="i3"><g transform="translate(28.984,118.297)"><animateTransform repeatCount="indefinite" type="translate" attributeName="transform" dur="3.003s" begin="0s" calcMode="spline" values="28.984 118.297; 29.609 117.172; 30.859 113.422; 28.984 118.297; 28.984 118.297" keyTimes="0; 0.111111; 0.222222; 1; 1" keySplines="0 0 1 1; 0 0 1 1; 0 0 1 1; 0 0 1 1" fill="freeze" /><g transform="scale(1,1) translate(-5.812,-110.453)"><g id="i4" transform="matrix(1,0,0,1,15.782,69.233)"><path fill="#ffffff" d="M-15.282,-41.266C-15.282,-41.266,-9.978,41.266,-9.978,41.266C-9.978,41.266,15.282,-30.511,15.282,-30.511C15.282,-30.511,-15.282,-41.266,-15.282,-41.266Z" /></g><g id="i5" transform="matrix(1,0,0,1,22.382,19.968)"><path fill="#f37cac" d="M21.882,-18.755C21.882,-18.755,-21.882,7.999,-21.882,7.999C-21.882,7.999,8.682,18.755,8.682,18.755C8.682,18.755,21.882,-18.755,21.882,-18.755Z" /></g><g id="i6" transform="matrix(1,0,0,1,46.345,25.346)"><path fill="#ffffff" d="M-15.282,13.377C-15.282,13.377,15.282,24.133,15.282,24.133C15.282,24.133,-2.082,-24.133,-2.082,-24.133C-2.082,-24.133,-15.282,13.377,-15.282,13.377Z" /></g><g id="i7" transform="matrix(1,0,0,1,33.715,74.611)"><path fill="#f37cac" d="M-27.911,35.889C-27.911,35.889,27.911,-25.133,27.911,-25.133C27.911,-25.133,-2.652,-35.889,-2.652,-35.889C-2.652,-35.889,-27.911,35.889,-27.911,35.889Z" /></g><g id="i8" transform="matrix(1,0,0,1,45.666,45.265)"><path fill="#f37cac" d="M-15.961,-3.458C-15.961,-3.458,14.039,6.542,14.039,6.542C14.039,6.542,15.961,4.214,15.961,4.214C15.961,4.214,-14.603,-6.542,-14.603,-6.542C-14.603,-6.542,-15.961,-3.458,-15.961,-3.458Z" /></g><g id="i9" transform="matrix(1,0,0,1,22.382,15.155)"><path fill="#f37cac" d="M21.882,-13.942C21.882,-13.942,-21.882,12.812,-21.882,12.812C-21.882,12.812,-18.669,13.942,-18.669,13.942C-18.669,13.942,-18.676,13.652,-18.676,13.652C-18.676,13.652,21.882,-13.942,21.882,-13.942Z" /></g><g id="i10" transform="matrix(1,0,0,1,3.152,69.233)"><path fill="#d9d8d0" d="M2.652,41.266C2.652,41.266,0.561,-40.136,0.561,-40.136C0.561,-40.136,-2.652,-41.266,-2.652,-41.266C-2.652,-41.266,2.652,41.266,2.652,41.266Z" /></g><g id="i11" transform="matrix(1,0,0,1,37.663,20.596)"><path fill="#d9d8d0" d="M-2.958,19.211C-2.958,19.211,6.6,-19.383,6.6,-19.383C6.6,-19.383,-6.6,18.126,-6.6,18.126C-6.6,18.126,-3.029,19.383,-3.029,19.383C-3.029,19.383,-2.958,19.211,-2.958,19.211Z" /></g><g id="i12" transform="matrix(1,0,0,1,20.219,74.611)"><path fill="#f37cac" d="M10.844,-35.889C10.844,-35.889,-14.415,35.889,-14.415,35.889C-14.415,35.889,14.415,-34.632,14.415,-34.632C14.415,-34.632,10.844,-35.889,10.844,-35.889Z" /></g><g id="i13" transform="matrix(1,0,0,1,14.115,27.41)"><path fill="#ffffff" d="M-0.967,-2.11C-0.967,-2.11,2.11,-0.967,2.11,-0.967C2.11,-0.967,0.967,2.11,0.967,2.11C0.967,2.11,-2.11,0.968,-2.11,0.968C-2.11,0.968,-0.967,-2.11,-0.967,-2.11Z" /></g><g id="i14" transform="matrix(1,0,0,1,18.834,27.848)"><path fill="#ffffff" d="M-0.539,-3.264C-0.539,-3.264,2.538,-2.121,2.538,-2.121C2.538,-2.121,0.539,3.264,0.539,3.264C0.539,3.264,-2.538,2.122,-2.538,2.122C-2.538,2.122,-0.539,-3.264,-0.539,-3.264Z" /></g><g id="i15" transform="matrix(1,0,0,1,23.555,28.287)"><path fill="#ffffff" d="M-0.111,-4.418C-0.111,-4.418,2.967,-3.276,2.967,-3.276C2.967,-3.276,0.111,4.418,0.111,4.418C0.111,4.418,-2.967,3.275,-2.967,3.275C-2.967,3.275,-0.111,-4.418,-0.111,-4.418Z" /></g><g id="i16" transform="matrix(1,0,0,1,28.417,28.342)"><path fill="#ffffff" d="M0.461,-5.956C0.461,-5.956,3.538,-4.814,3.538,-4.814C3.538,-4.814,-0.46,5.956,-0.46,5.956C-0.46,5.956,-3.538,4.814,-3.538,4.814C-3.538,4.814,0.461,-5.956,0.461,-5.956Z" /></g><g id="i17" transform="matrix(1,0,0,1,31.078,55.878)"><path stroke-linejoin="round" stroke-linecap="round" stroke-width="1" stroke="#201d1f" fill-rule="evenodd" d="M-25.259,54.643C-25.259,54.643,13.2,-54.643,13.2,-54.643M13.2,-54.643C13.2,-54.643,-30.563,-27.89,-30.563,-27.89C-30.563,-27.89,-25.259,54.643,-25.259,54.643C-25.259,54.643,6.785,19.615,6.785,19.615C6.785,19.615,30.563,-6.378,30.563,-6.378C30.563,-6.378,13.2,-54.643,13.2,-54.643ZM-30.532,-27.858C-30.532,-27.858,-17.718,-9.754,-17.718,-9.754C-17.718,-9.754,-7.595,4.55,-7.595,4.55C-7.595,4.55,13.562,-1.503,13.562,-1.503C13.562,-1.503,30.548,-6.362,30.548,-6.362C30.548,-6.362,-30.532,-27.858,-30.532,-27.858Z"><animate repeatCount="indefinite" attributeName="d" dur="3.003s" begin="0s" calcMode="spline" values="M-25.259,54.643C-25.259,54.643,13.2,-54.643,13.2,-54.643M13.2,-54.643C13.2,-54.643,-30.563,-27.89,-30.563,-27.89C-30.563,-27.89,-25.259,54.643,-25.259,54.643C-25.259,54.643,6.785,19.615,6.785,19.615C6.785,19.615,30.563,-6.378,30.563,-6.378C30.563,-6.378,13.2,-54.643,13.2,-54.643ZM-30.532,-27.858C-30.532,-27.858,-17.718,-9.754,-17.718,-9.754C-17.718,-9.754,-7.595,4.55,-7.595,4.55C-7.595,4.55,13.562,-1.503,13.562,-1.503C13.562,-1.503,30.548,-6.362,30.548,-6.362C30.548,-6.362,-30.532,-27.858,-30.532,-27.858Z; M-25.259,54.643C-25.259,54.643,13.2,-54.643,13.2,-54.643M13.2,-54.643C13.2,-54.643,-30.563,-27.89,-30.563,-27.89C-30.563,-27.89,-25.259,54.643,-25.259,54.643C-25.259,54.643,6.785,19.615,6.785,19.615C6.785,19.615,30.563,-6.378,30.563,-6.378C30.563,-6.378,13.2,-54.643,13.2,-54.643ZM-30.532,-27.858C-30.532,-27.858,-23.296,-18.565,-18.156,-11.038C-14.441,-5.597,-8.22,6.112,-8.22,6.112C-8.22,6.112,3.813,1.152,10.602,-0.7C19.614,-3.159,30.548,-6.362,30.548,-6.362C30.548,-6.362,-30.532,-27.858,-30.532,-27.858Z; M-25.259,54.643C-25.259,54.643,13.2,-54.643,13.2,-54.643M13.2,-54.643C13.2,-54.643,-30.563,-27.89,-30.563,-27.89C-30.563,-27.89,-25.259,54.643,-25.259,54.643C-25.259,54.643,6.785,19.615,6.785,19.615C6.785,19.615,30.563,-6.378,30.563,-6.378C30.563,-6.378,13.2,-54.643,13.2,-54.643ZM-30.532,-27.858C-30.532,-27.858,-18.787,-6.786,-18.787,-6.786C-18.787,-6.786,-9.508,9.863,-9.508,9.863C-9.508,9.863,12.71,0.863,12.71,0.863C12.71,0.863,30.548,-6.362,30.548,-6.362C30.548,-6.362,-30.532,-27.858,-30.532,-27.858Z; M-25.259,54.643C-25.259,54.643,13.2,-54.643,13.2,-54.643M13.2,-54.643C13.2,-54.643,-30.563,-27.89,-30.563,-27.89C-30.563,-27.89,-25.259,54.643,-25.259,54.643C-25.259,54.643,6.785,19.615,6.785,19.615C6.785,19.615,30.563,-6.378,30.563,-6.378C30.563,-6.378,13.2,-54.643,13.2,-54.643ZM-30.532,-27.858C-30.532,-27.858,-17.718,-9.754,-17.718,-9.754C-17.718,-9.754,-7.595,4.55,-7.595,4.55C-7.595,4.55,13.562,-1.503,13.562,-1.503C13.562,-1.503,30.548,-6.362,30.548,-6.362C30.548,-6.362,-30.532,-27.858,-30.532,-27.858Z" keyTimes="0; 0.111111; 0.222222; 1" keySplines="0 0 1 1; 0 0 1 1; 0 0 1 1" fill="freeze" /></path></g></g></g></g><g transform="matrix(1,0,0,1,50.594,59.438)" id="i18"><g id="i19" transform="matrix(1,0,0,1,-3.727,8.586)"><ellipse ry="2.273" rx="2.273" cy="0" cx="0" stroke-width="1" stroke="#383838" fill="#757575" /></g></g></g><g id="i20"><g id="i21"><g transform="translate(67.484,113.297)"><animateTransform repeatCount="indefinite" type="translate" attributeName="transform" dur="3.003s" begin="0s" calcMode="spline" values="67.484 113.297; 59.962 105.363; 57.073 107.337; 65.25 118.5; 69.438 117; 67.5 113.297; 67.5 113.297" keyTimes="0; 0.222222; 0.333333; 0.666667; 0.851233; 1; 1" keySplines="0 0 1 1; 0 0 1 1; 0 0 1 1; 0 0 1 1; 0 0 1 1; 0 0 1 1" fill="freeze" /><g transform="rotate(0)"><animateTransform repeatCount="indefinite" type="rotate" attributeName="transform" dur="3.003s" begin="0s" calcMode="spline" values="0; 3.898; 0; 0" keyTimes="0; 0.222222; 1; 1" keySplines="0 0 1 1; 0.167 0.167 0.833 1; 0 0 1 1" fill="freeze" /><g transform="scale(1,1) translate(-5.812,-110.453)"><g clip-path="url(#i1)"><g><g transform="translate(28.984,118.297)"><animateTransform repeatCount="indefinite" type="translate" attributeName="transform" dur="3.003s" begin="0s" calcMode="spline" values="28.984 118.297; 29.609 117.172; 30.859 113.422; 28.984 118.297; 28.984 118.297" keyTimes="0; 0.111111; 0.222222; 1; 1" keySplines="0 0 1 1; 0 0 1 1; 0 0 1 1; 0 0 1 1" fill="freeze" /><g transform="scale(1,1) translate(-5.812,-110.453)"><g transform="matrix(1,0,0,1,15.782,69.233)"><path fill="#ffffff" d="M-15.282,-41.266C-15.282,-41.266,-9.978,41.266,-9.978,41.266C-9.978,41.266,15.282,-30.511,15.282,-30.511C15.282,-30.511,-15.282,-41.266,-15.282,-41.266Z" /></g><g transform="matrix(1,0,0,1,22.382,19.968)"><path fill="#f37cac" d="M21.882,-18.755C21.882,-18.755,-21.882,7.999,-21.882,7.999C-21.882,7.999,8.682,18.755,8.682,18.755C8.682,18.755,21.882,-18.755,21.882,-18.755Z" /></g><g transform="matrix(1,0,0,1,46.345,25.346)"><path fill="#ffffff" d="M-15.282,13.377C-15.282,13.377,15.282,24.133,15.282,24.133C15.282,24.133,-2.082,-24.133,-2.082,-24.133C-2.082,-24.133,-15.282,13.377,-15.282,13.377Z" /></g><g transform="matrix(1,0,0,1,33.715,74.611)"><path fill="#f37cac" d="M-27.911,35.889C-27.911,35.889,27.911,-25.133,27.911,-25.133C27.911,-25.133,-2.652,-35.889,-2.652,-35.889C-2.652,-35.889,-27.911,35.889,-27.911,35.889Z" /></g><g transform="matrix(1,0,0,1,45.666,45.265)"><path fill="#f37cac" d="M-15.961,-3.458C-15.961,-3.458,14.039,6.542,14.039,6.542C14.039,6.542,15.961,4.214,15.961,4.214C15.961,4.214,-14.603,-6.542,-14.603,-6.542C-14.603,-6.542,-15.961,-3.458,-15.961,-3.458Z" /></g><g transform="matrix(1,0,0,1,22.382,15.155)"><path fill="#f37cac" d="M21.882,-13.942C21.882,-13.942,-21.882,12.812,-21.882,12.812C-21.882,12.812,-18.669,13.942,-18.669,13.942C-18.669,13.942,-18.676,13.652,-18.676,13.652C-18.676,13.652,21.882,-13.942,21.882,-13.942Z" /></g><g transform="matrix(1,0,0,1,3.152,69.233)"><path fill="#d9d8d0" d="M2.652,41.266C2.652,41.266,0.561,-40.136,0.561,-40.136C0.561,-40.136,-2.652,-41.266,-2.652,-41.266C-2.652,-41.266,2.652,41.266,2.652,41.266Z" /></g><g transform="matrix(1,0,0,1,37.663,20.596)"><path fill="#d9d8d0" d="M-2.958,19.211C-2.958,19.211,6.6,-19.383,6.6,-19.383C6.6,-19.383,-6.6,18.126,-6.6,18.126C-6.6,18.126,-3.029,19.383,-3.029,19.383C-3.029,19.383,-2.958,19.211,-2.958,19.211Z" /></g><g transform="matrix(1,0,0,1,20.219,74.611)"><path fill="#f37cac" d="M10.844,-35.889C10.844,-35.889,-14.415,35.889,-14.415,35.889C-14.415,35.889,14.415,-34.632,14.415,-34.632C14.415,-34.632,10.844,-35.889,10.844,-35.889Z" /></g><g transform="matrix(1,0,0,1,14.115,27.41)"><path fill="#ffffff" d="M-0.967,-2.11C-0.967,-2.11,2.11,-0.967,2.11,-0.967C2.11,-0.967,0.967,2.11,0.967,2.11C0.967,2.11,-2.11,0.968,-2.11,0.968C-2.11,0.968,-0.967,-2.11,-0.967,-2.11Z" /></g><g transform="matrix(1,0,0,1,18.834,27.848)"><path fill="#ffffff" d="M-0.539,-3.264C-0.539,-3.264,2.538,-2.121,2.538,-2.121C2.538,-2.121,0.539,3.264,0.539,3.264C0.539,3.264,-2.538,2.122,-2.538,2.122C-2.538,2.122,-0.539,-3.264,-0.539,-3.264Z" /></g><g transform="matrix(1,0,0,1,23.555,28.287)"><path fill="#ffffff" d="M-0.111,-4.418C-0.111,-4.418,2.967,-3.276,2.967,-3.276C2.967,-3.276,0.111,4.418,0.111,4.418C0.111,4.418,-2.967,3.275,-2.967,3.275C-2.967,3.275,-0.111,-4.418,-0.111,-4.418Z" /></g><g transform="matrix(1,0,0,1,28.417,28.342)"><path fill="#ffffff" d="M0.461,-5.956C0.461,-5.956,3.538,-4.814,3.538,-4.814C3.538,-4.814,-0.46,5.956,-0.46,5.956C-0.46,5.956,-3.538,4.814,-3.538,4.814C-3.538,4.814,0.461,-5.956,0.461,-5.956Z" /></g><g transform="matrix(1,0,0,1,31.078,55.878)"><path stroke-linejoin="round" stroke-linecap="round" stroke-width="1" stroke="#201d1f" fill-rule="evenodd" d="M-25.259,54.643C-25.259,54.643,13.2,-54.643,13.2,-54.643M13.2,-54.643C13.2,-54.643,-30.563,-27.89,-30.563,-27.89C-30.563,-27.89,-25.259,54.643,-25.259,54.643C-25.259,54.643,6.785,19.615,6.785,19.615C6.785,19.615,30.563,-6.378,30.563,-6.378C30.563,-6.378,13.2,-54.643,13.2,-54.643ZM-30.532,-27.858C-30.532,-27.858,-17.718,-9.754,-17.718,-9.754C-17.718,-9.754,-7.595,4.55,-7.595,4.55C-7.595,4.55,13.562,-1.503,13.562,-1.503C13.562,-1.503,30.548,-6.362,30.548,-6.362C30.548,-6.362,-30.532,-27.858,-30.532,-27.858Z"><animate repeatCount="indefinite" attributeName="d" dur="3.003s" begin="0s" calcMode="spline" values="M-25.259,54.643C-25.259,54.643,13.2,-54.643,13.2,-54.643M13.2,-54.643C13.2,-54.643,-30.563,-27.89,-30.563,-27.89C-30.563,-27.89,-25.259,54.643,-25.259,54.643C-25.259,54.643,6.785,19.615,6.785,19.615C6.785,19.615,30.563,-6.378,30.563,-6.378C30.563,-6.378,13.2,-54.643,13.2,-54.643ZM-30.532,-27.858C-30.532,-27.858,-17.718,-9.754,-17.718,-9.754C-17.718,-9.754,-7.595,4.55,-7.595,4.55C-7.595,4.55,13.562,-1.503,13.562,-1.503C13.562,-1.503,30.548,-6.362,30.548,-6.362C30.548,-6.362,-30.532,-27.858,-30.532,-27.858Z; M-25.259,54.643C-25.259,54.643,13.2,-54.643,13.2,-54.643M13.2,-54.643C13.2,-54.643,-30.563,-27.89,-30.563,-27.89C-30.563,-27.89,-25.259,54.643,-25.259,54.643C-25.259,54.643,6.785,19.615,6.785,19.615C6.785,19.615,30.563,-6.378,30.563,-6.378C30.563,-6.378,13.2,-54.643,13.2,-54.643ZM-30.532,-27.858C-30.532,-27.858,-23.296,-18.565,-18.156,-11.038C-14.441,-5.597,-8.22,6.112,-8.22,6.112C-8.22,6.112,3.813,1.152,10.602,-0.7C19.614,-3.159,30.548,-6.362,30.548,-6.362C30.548,-6.362,-30.532,-27.858,-30.532,-27.858Z; M-25.259,54.643C-25.259,54.643,13.2,-54.643,13.2,-54.643M13.2,-54.643C13.2,-54.643,-30.563,-27.89,-30.563,-27.89C-30.563,-27.89,-25.259,54.643,-25.259,54.643C-25.259,54.643,6.785,19.615,6.785,19.615C6.785,19.615,30.563,-6.378,30.563,-6.378C30.563,-6.378,13.2,-54.643,13.2,-54.643ZM-30.532,-27.858C-30.532,-27.858,-18.787,-6.786,-18.787,-6.786C-18.787,-6.786,-9.508,9.863,-9.508,9.863C-9.508,9.863,12.71,0.863,12.71,0.863C12.71,0.863,30.548,-6.362,30.548,-6.362C30.548,-6.362,-30.532,-27.858,-30.532,-27.858Z; M-25.259,54.643C-25.259,54.643,13.2,-54.643,13.2,-54.643M13.2,-54.643C13.2,-54.643,-30.563,-27.89,-30.563,-27.89C-30.563,-27.89,-25.259,54.643,-25.259,54.643C-25.259,54.643,6.785,19.615,6.785,19.615C6.785,19.615,30.563,-6.378,30.563,-6.378C30.563,-6.378,13.2,-54.643,13.2,-54.643ZM-30.532,-27.858C-30.532,-27.858,-17.718,-9.754,-17.718,-9.754C-17.718,-9.754,-7.595,4.55,-7.595,4.55C-7.595,4.55,13.562,-1.503,13.562,-1.503C13.562,-1.503,30.548,-6.362,30.548,-6.362C30.548,-6.362,-30.532,-27.858,-30.532,-27.858Z" keyTimes="0; 0.111111; 0.222222; 1" keySplines="0 0 1 1; 0 0 1 1; 0 0 1 1" fill="freeze" /></path></g></g></g></g><g transform="matrix(1,0,0,1,50.594,59.438)"><g transform="matrix(1,0,0,1,-3.727,8.586)"><ellipse ry="2.273" rx="2.273" cy="0" cx="0" stroke-width="1" stroke="#383838" fill="#757575" /></g></g></g></g></g></g></g><g transform="matrix(1,0,0,1,9.25,118)" id="i22"><g id="i17" transform="matrix(1.011,0,0,1.001,41.975,24.41)"><path d="M-42.077,14.486C-7.886,10.826,34.141,-22.632,56.448,-71.371" stroke-linejoin="round" stroke-linecap="round" stroke-width="1" stroke="#757575"><animate repeatCount="indefinite" attributeName="d" dur="3.003s" begin="0s" calcMode="spline" values="M-42.077,14.486C-7.886,10.826,34.141,-22.632,56.448,-71.371; M-42.031,14.486C-12.969,11.375,37.162,-30.942,56.123,-72.37; M-41.969,14.486C-19.745,12.107,41.19,-42.313,55.689,-73.993; M-41.923,14.486C-24.827,12.656,43.858,-50.747,55.011,-75.117; M-41.861,14.486C-31.604,13.388,47.582,-61.618,54.274,-76.24; M-41.815,14.486C-36.686,13.937,49.942,-69.554,53.288,-76.865; M-41.768,14.486C-41.768,14.486,51.843,-76.365,51.843,-76.365; M-41.782,14.486C-40.317,14.329,49.774,-74.087,50.73,-76.176; M-41.795,14.486C-38.864,14.172,47.485,-71.889,49.397,-76.067; M-41.813,14.486C-36.929,13.963,45.358,-67.94,48.545,-74.903; M-41.826,14.486C-35.476,13.806,44.785,-64.738,48.928,-73.79; M-41.839,14.486C-34.024,13.649,44.389,-61.412,49.488,-72.552; M-41.857,14.486C-32.088,13.44,43.86,-57.268,50.233,-71.193; M-41.87,14.486C-30.636,13.283,43.611,-54.466,50.94,-70.48; M-41.883,14.486C-29.183,13.127,43.238,-51.182,51.523,-69.285; M-41.901,14.486C-27.248,12.917,43.029,-47.095,52.589,-67.983; M-41.914,14.486C-25.795,12.761,42.881,-44.049,53.397,-67.026; M-41.927,14.486C-24.343,12.604,42.61,-41.306,54.082,-66.372; M-41.945,14.486C-22.407,12.395,42.537,-37.358,55.284,-65.209; M-41.958,14.486C-20.955,12.238,42.526,-35.112,56.229,-65.052; M-41.971,14.486C-19.503,12.081,42.338,-33.097,56.997,-65.126; M-41.989,14.486C-17.567,11.872,42.088,-30.702,58.021,-65.516; M-42.002,14.486C-16.114,11.715,41.847,-29.204,58.736,-66.107; M-42.02,14.486C-14.179,11.506,40.721,-27.683,58.885,-67.371; M-42.033,14.486C-12.726,11.349,39.227,-26.543,58.347,-68.319; M-42.047,14.486C-11.275,11.192,37.825,-25.619,57.901,-69.484; M-42.06,14.486C-9.823,11.035,36.37,-24.214,57.402,-70.168; M-42.077,14.486C-7.886,10.826,34.141,-22.632,56.448,-71.371" keyTimes="0; 0.033333; 0.077778; 0.111111; 0.155556; 0.188889; 0.222222; 0.255556; 0.288889; 0.333333; 0.366667; 0.4; 0.444444; 0.477778; 0.511111; 0.555556; 0.588889; 0.622222; 0.666667; 0.7; 0.733333; 0.777778; 0.811111; 0.855556; 0.888889; 0.922222; 0.955556; 1" keySplines="0 0 1 1; 0 0 1 1; 0 0 1 1; 0 0 1 1; 0 0 1 1; 0 0 1 1; 0 0 1 1; 0 0 1 1; 0 0 1 1; 0 0 1 1; 0 0 1 1; 0 0 1 1; 0 0 1 1; 0 0 1 1; 0 0 1 1; 0 0 1 1; 0 0 1 1; 0 0 1 1; 0 0 1 1; 0 0 1 1; 0 0 1 1; 0 0 1 1; 0 0 1 1; 0 0 1 1; 0 0 1 1; 0 0 1 1; 0 0 1 1" fill="freeze" /></path></g></g><g transform="matrix(1,0,0,1,88,88)" id="i23" /></g></defs><g id="i24"><g transform="translate(130.656,124.5)"><animateTransform repeatCount="indefinite" type="translate" attributeName="transform" dur="3.003s" begin="0s" calcMode="spline" values="130.656 124.5; 129.312 121.531; 127.375 121.281; 127.031 122.641; 130.641 124.5; 130.641 124.5" keyTimes="0; 0.177778; 0.244444; 0.366667; 1; 1" keySplines="0 0 1 1; 0 0 1 1; 0 0 1 1; 0 0 1 1; 0 0 1 1" fill="freeze" /><g transform="scale(1,1) translate(-31.5,-21)"><g id="i13" transform="matrix(1,0,0,1,31.459,21.377)"><path fill="#ffffff" d="M-23.23,-0.188C-27.676,0.961,-30.959,4.999,-30.959,9.804C-30.959,15.503,-26.338,20.123,-20.639,20.123C-20.639,20.123,19.607,20.123,19.607,20.123C25.876,20.123,30.959,15.041,30.959,8.771C30.959,2.501,25.876,-2.58,19.607,-2.58C19.251,-2.58,21.07,-2.578,21.07,-2.578C21.458,-3.534,21.671,-4.58,21.671,-5.676C21.671,-10.236,17.975,-13.932,13.415,-13.932C11.034,-13.932,8.896,-12.918,7.389,-11.306C4.622,-16.549,-0.883,-20.123,-7.224,-20.123C-16.343,-20.123,-23.735,-12.73,-23.735,-3.612C-23.735,-2.471,-23.62,-1.359,-23.4,-0.284C-23.4,-0.284,-22.402,-0.402,-23.23,-0.188Z" /></g><g id="i14" transform="matrix(1,0,0,1,52.078,14.249)"><path fill="#f8edef" d="M-1.009,0.419C-0.787,0.42,0.451,0.421,0.451,0.421C0.586,0.089,0.691,-0.257,0.781,-0.61C0.884,-0.213,0.967,0.192,1.009,0.61C0.353,0.492,-0.319,0.42,-1.009,0.419Z" /></g><g id="i15" transform="matrix(1,0,0,1,8.404,16.454)"><path fill="#f8edef" d="M-0.345,0.511C-0.345,0.511,0.653,0.393,-0.175,0.607C-0.337,0.649,-0.494,0.702,-0.653,0.752C-0.635,0.244,-0.6,-0.257,-0.538,-0.752C-0.485,-0.327,-0.43,0.097,-0.345,0.511Z" /></g><g id="i16" transform="matrix(1,0,0,1,31.459,34.792)"><path fill="#e3e3e3" d="M-20.639,2.58C-20.639,2.58,19.607,2.58,19.607,2.58C25.17,2.58,29.79,-1.426,30.762,-6.708C30.886,-6.038,30.959,-5.35,30.959,-4.644C30.959,1.626,25.876,6.708,19.607,6.708C19.607,6.708,-20.639,6.708,-20.639,6.708C-26.338,6.708,-30.959,2.087,-30.959,-3.612C-30.959,-4.313,-30.881,-4.995,-30.748,-5.656C-29.784,-0.956,-25.624,2.58,-20.639,2.58Z" /></g><g id="i17" transform="matrix(1,0,0,1,31.459,21.377)"><path stroke-linejoin="round" stroke-linecap="round" stroke-width="1" stroke="#201d1f" fill-rule="evenodd" d="M5.159,-5.676C5.159,-10.236,8.855,-13.932,13.415,-13.932C17.975,-13.932,21.671,-10.236,21.671,-5.676C21.671,-4.58,21.458,-3.534,21.07,-2.578M13.086,-0.52C14.931,-1.818,17.18,-2.58,19.607,-2.58C25.876,-2.58,30.959,2.501,30.959,8.771C30.959,15.041,25.876,20.123,19.607,20.123C19.607,20.123,-20.639,20.123,-20.639,20.123C-26.338,20.123,-30.959,15.503,-30.959,9.804C-30.959,4.105,-26.338,-0.516,-20.639,-0.516C-18.168,-0.516,-15.9,0.353,-14.124,1.801M-23.4,-0.284C-23.62,-1.359,-23.735,-2.471,-23.735,-3.612C-23.735,-12.73,-16.343,-20.123,-7.224,-20.123C-0.883,-20.123,4.623,-16.549,7.389,-11.305" /></g></g></g></g><g transform="matrix(1,0,0,1,0,0)" id="i25"><g clip-path="url(#i0)"><g><g transform="translate(67.484,113.297)"><animateTransform repeatCount="indefinite" type="translate" attributeName="transform" dur="3.003s" begin="0s" calcMode="spline" values="67.484 113.297; 59.962 105.363; 57.073 107.337; 65.25 118.5; 69.438 117; 67.5 113.297; 67.5 113.297" keyTimes="0; 0.222222; 0.333333; 0.666667; 0.851233; 1; 1" keySplines="0 0 1 1; 0 0 1 1; 0 0 1 1; 0 0 1 1; 0 0 1 1; 0 0 1 1" fill="freeze" /><g transform="rotate(0)"><animateTransform repeatCount="indefinite" type="rotate" attributeName="transform" dur="3.003s" begin="0s" calcMode="spline" values="0; 3.898; 0; 0" keyTimes="0; 0.222222; 1; 1" keySplines="0 0 1 1; 0.167 0.167 0.833 1; 0 0 1 1" fill="freeze" /><g transform="scale(1,1) translate(-5.812,-110.453)"><g clip-path="url(#i1)"><g><g transform="translate(28.984,118.297)"><animateTransform repeatCount="indefinite" type="translate" attributeName="transform" dur="3.003s" begin="0s" calcMode="spline" values="28.984 118.297; 29.609 117.172; 30.859 113.422; 28.984 118.297; 28.984 118.297" keyTimes="0; 0.111111; 0.222222; 1; 1" keySplines="0 0 1 1; 0 0 1 1; 0 0 1 1; 0 0 1 1" fill="freeze" /><g transform="scale(1,1) translate(-5.812,-110.453)"><g transform="matrix(1,0,0,1,15.782,69.233)"><path fill="#ffffff" d="M-15.282,-41.266C-15.282,-41.266,-9.978,41.266,-9.978,41.266C-9.978,41.266,15.282,-30.511,15.282,-30.511C15.282,-30.511,-15.282,-41.266,-15.282,-41.266Z" /></g><g transform="matrix(1,0,0,1,22.382,19.968)"><path fill="#f37cac" d="M21.882,-18.755C21.882,-18.755,-21.882,7.999,-21.882,7.999C-21.882,7.999,8.682,18.755,8.682,18.755C8.682,18.755,21.882,-18.755,21.882,-18.755Z" /></g><g transform="matrix(1,0,0,1,46.345,25.346)"><path fill="#ffffff" d="M-15.282,13.377C-15.282,13.377,15.282,24.133,15.282,24.133C15.282,24.133,-2.082,-24.133,-2.082,-24.133C-2.082,-24.133,-15.282,13.377,-15.282,13.377Z" /></g><g transform="matrix(1,0,0,1,33.715,74.611)"><path fill="#f37cac" d="M-27.911,35.889C-27.911,35.889,27.911,-25.133,27.911,-25.133C27.911,-25.133,-2.652,-35.889,-2.652,-35.889C-2.652,-35.889,-27.911,35.889,-27.911,35.889Z" /></g><g transform="matrix(1,0,0,1,45.666,45.265)"><path fill="#f37cac" d="M-15.961,-3.458C-15.961,-3.458,14.039,6.542,14.039,6.542C14.039,6.542,15.961,4.214,15.961,4.214C15.961,4.214,-14.603,-6.542,-14.603,-6.542C-14.603,-6.542,-15.961,-3.458,-15.961,-3.458Z" /></g><g transform="matrix(1,0,0,1,22.382,15.155)"><path fill="#f37cac" d="M21.882,-13.942C21.882,-13.942,-21.882,12.812,-21.882,12.812C-21.882,12.812,-18.669,13.942,-18.669,13.942C-18.669,13.942,-18.676,13.652,-18.676,13.652C-18.676,13.652,21.882,-13.942,21.882,-13.942Z" /></g><g transform="matrix(1,0,0,1,3.152,69.233)"><path fill="#d9d8d0" d="M2.652,41.266C2.652,41.266,0.561,-40.136,0.561,-40.136C0.561,-40.136,-2.652,-41.266,-2.652,-41.266C-2.652,-41.266,2.652,41.266,2.652,41.266Z" /></g><g transform="matrix(1,0,0,1,37.663,20.596)"><path fill="#d9d8d0" d="M-2.958,19.211C-2.958,19.211,6.6,-19.383,6.6,-19.383C6.6,-19.383,-6.6,18.126,-6.6,18.126C-6.6,18.126,-3.029,19.383,-3.029,19.383C-3.029,19.383,-2.958,19.211,-2.958,19.211Z" /></g><g transform="matrix(1,0,0,1,20.219,74.611)"><path fill="#f37cac" d="M10.844,-35.889C10.844,-35.889,-14.415,35.889,-14.415,35.889C-14.415,35.889,14.415,-34.632,14.415,-34.632C14.415,-34.632,10.844,-35.889,10.844,-35.889Z" /></g><g transform="matrix(1,0,0,1,14.115,27.41)"><path fill="#ffffff" d="M-0.967,-2.11C-0.967,-2.11,2.11,-0.967,2.11,-0.967C2.11,-0.967,0.967,2.11,0.967,2.11C0.967,2.11,-2.11,0.968,-2.11,0.968C-2.11,0.968,-0.967,-2.11,-0.967,-2.11Z" /></g><g transform="matrix(1,0,0,1,18.834,27.848)"><path fill="#ffffff" d="M-0.539,-3.264C-0.539,-3.264,2.538,-2.121,2.538,-2.121C2.538,-2.121,0.539,3.264,0.539,3.264C0.539,3.264,-2.538,2.122,-2.538,2.122C-2.538,2.122,-0.539,-3.264,-0.539,-3.264Z" /></g><g transform="matrix(1,0,0,1,23.555,28.287)"><path fill="#ffffff" d="M-0.111,-4.418C-0.111,-4.418,2.967,-3.276,2.967,-3.276C2.967,-3.276,0.111,4.418,0.111,4.418C0.111,4.418,-2.967,3.275,-2.967,3.275C-2.967,3.275,-0.111,-4.418,-0.111,-4.418Z" /></g><g transform="matrix(1,0,0,1,28.417,28.342)"><path fill="#ffffff" d="M0.461,-5.956C0.461,-5.956,3.538,-4.814,3.538,-4.814C3.538,-4.814,-0.46,5.956,-0.46,5.956C-0.46,5.956,-3.538,4.814,-3.538,4.814C-3.538,4.814,0.461,-5.956,0.461,-5.956Z" /></g><g transform="matrix(1,0,0,1,31.078,55.878)"><path stroke-linejoin="round" stroke-linecap="round" stroke-width="1" stroke="#201d1f" fill-rule="evenodd" d="M-25.259,54.643C-25.259,54.643,13.2,-54.643,13.2,-54.643M13.2,-54.643C13.2,-54.643,-30.563,-27.89,-30.563,-27.89C-30.563,-27.89,-25.259,54.643,-25.259,54.643C-25.259,54.643,6.785,19.615,6.785,19.615C6.785,19.615,30.563,-6.378,30.563,-6.378C30.563,-6.378,13.2,-54.643,13.2,-54.643ZM-30.532,-27.858C-30.532,-27.858,-17.718,-9.754,-17.718,-9.754C-17.718,-9.754,-7.595,4.55,-7.595,4.55C-7.595,4.55,13.562,-1.503,13.562,-1.503C13.562,-1.503,30.548,-6.362,30.548,-6.362C30.548,-6.362,-30.532,-27.858,-30.532,-27.858Z"><animate repeatCount="indefinite" attributeName="d" dur="3.003s" begin="0s" calcMode="spline" values="M-25.259,54.643C-25.259,54.643,13.2,-54.643,13.2,-54.643M13.2,-54.643C13.2,-54.643,-30.563,-27.89,-30.563,-27.89C-30.563,-27.89,-25.259,54.643,-25.259,54.643C-25.259,54.643,6.785,19.615,6.785,19.615C6.785,19.615,30.563,-6.378,30.563,-6.378C30.563,-6.378,13.2,-54.643,13.2,-54.643ZM-30.532,-27.858C-30.532,-27.858,-17.718,-9.754,-17.718,-9.754C-17.718,-9.754,-7.595,4.55,-7.595,4.55C-7.595,4.55,13.562,-1.503,13.562,-1.503C13.562,-1.503,30.548,-6.362,30.548,-6.362C30.548,-6.362,-30.532,-27.858,-30.532,-27.858Z; M-25.259,54.643C-25.259,54.643,13.2,-54.643,13.2,-54.643M13.2,-54.643C13.2,-54.643,-30.563,-27.89,-30.563,-27.89C-30.563,-27.89,-25.259,54.643,-25.259,54.643C-25.259,54.643,6.785,19.615,6.785,19.615C6.785,19.615,30.563,-6.378,30.563,-6.378C30.563,-6.378,13.2,-54.643,13.2,-54.643ZM-30.532,-27.858C-30.532,-27.858,-23.296,-18.565,-18.156,-11.038C-14.441,-5.597,-8.22,6.112,-8.22,6.112C-8.22,6.112,3.813,1.152,10.602,-0.7C19.614,-3.159,30.548,-6.362,30.548,-6.362C30.548,-6.362,-30.532,-27.858,-30.532,-27.858Z; M-25.259,54.643C-25.259,54.643,13.2,-54.643,13.2,-54.643M13.2,-54.643C13.2,-54.643,-30.563,-27.89,-30.563,-27.89C-30.563,-27.89,-25.259,54.643,-25.259,54.643C-25.259,54.643,6.785,19.615,6.785,19.615C6.785,19.615,30.563,-6.378,30.563,-6.378C30.563,-6.378,13.2,-54.643,13.2,-54.643ZM-30.532,-27.858C-30.532,-27.858,-18.787,-6.786,-18.787,-6.786C-18.787,-6.786,-9.508,9.863,-9.508,9.863C-9.508,9.863,12.71,0.863,12.71,0.863C12.71,0.863,30.548,-6.362,30.548,-6.362C30.548,-6.362,-30.532,-27.858,-30.532,-27.858Z; M-25.259,54.643C-25.259,54.643,13.2,-54.643,13.2,-54.643M13.2,-54.643C13.2,-54.643,-30.563,-27.89,-30.563,-27.89C-30.563,-27.89,-25.259,54.643,-25.259,54.643C-25.259,54.643,6.785,19.615,6.785,19.615C6.785,19.615,30.563,-6.378,30.563,-6.378C30.563,-6.378,13.2,-54.643,13.2,-54.643ZM-30.532,-27.858C-30.532,-27.858,-17.718,-9.754,-17.718,-9.754C-17.718,-9.754,-7.595,4.55,-7.595,4.55C-7.595,4.55,13.562,-1.503,13.562,-1.503C13.562,-1.503,30.548,-6.362,30.548,-6.362C30.548,-6.362,-30.532,-27.858,-30.532,-27.858Z" keyTimes="0; 0.111111; 0.222222; 1" keySplines="0 0 1 1; 0 0 1 1; 0 0 1 1" fill="freeze" /></path></g></g></g></g><g transform="matrix(1,0,0,1,50.594,59.438)"><g transform="matrix(1,0,0,1,-3.727,8.586)"><ellipse ry="2.273" rx="2.273" cy="0" cx="0" stroke-width="1" stroke="#383838" fill="#757575" /></g></g></g></g></g></g></g><g transform="matrix(1,0,0,1,9.25,118)"><g transform="matrix(1.011,0,0,1.001,41.975,24.41)"><path d="M-42.077,14.486C-7.886,10.826,34.141,-22.632,56.448,-71.371" stroke-linejoin="round" stroke-linecap="round" stroke-width="1" stroke="#757575"><animate repeatCount="indefinite" attributeName="d" dur="3.003s" begin="0s" calcMode="spline" values="M-42.077,14.486C-7.886,10.826,34.141,-22.632,56.448,-71.371; M-42.031,14.486C-12.969,11.375,37.162,-30.942,56.123,-72.37; M-41.969,14.486C-19.745,12.107,41.19,-42.313,55.689,-73.993; M-41.923,14.486C-24.827,12.656,43.858,-50.747,55.011,-75.117; M-41.861,14.486C-31.604,13.388,47.582,-61.618,54.274,-76.24; M-41.815,14.486C-36.686,13.937,49.942,-69.554,53.288,-76.865; M-41.768,14.486C-41.768,14.486,51.843,-76.365,51.843,-76.365; M-41.782,14.486C-40.317,14.329,49.774,-74.087,50.73,-76.176; M-41.795,14.486C-38.864,14.172,47.485,-71.889,49.397,-76.067; M-41.813,14.486C-36.929,13.963,45.358,-67.94,48.545,-74.903; M-41.826,14.486C-35.476,13.806,44.785,-64.738,48.928,-73.79; M-41.839,14.486C-34.024,13.649,44.389,-61.412,49.488,-72.552; M-41.857,14.486C-32.088,13.44,43.86,-57.268,50.233,-71.193; M-41.87,14.486C-30.636,13.283,43.611,-54.466,50.94,-70.48; M-41.883,14.486C-29.183,13.127,43.238,-51.182,51.523,-69.285; M-41.901,14.486C-27.248,12.917,43.029,-47.095,52.589,-67.983; M-41.914,14.486C-25.795,12.761,42.881,-44.049,53.397,-67.026; M-41.927,14.486C-24.343,12.604,42.61,-41.306,54.082,-66.372; M-41.945,14.486C-22.407,12.395,42.537,-37.358,55.284,-65.209; M-41.958,14.486C-20.955,12.238,42.526,-35.112,56.229,-65.052; M-41.971,14.486C-19.503,12.081,42.338,-33.097,56.997,-65.126; M-41.989,14.486C-17.567,11.872,42.088,-30.702,58.021,-65.516; M-42.002,14.486C-16.114,11.715,41.847,-29.204,58.736,-66.107; M-42.02,14.486C-14.179,11.506,40.721,-27.683,58.885,-67.371; M-42.033,14.486C-12.726,11.349,39.227,-26.543,58.347,-68.319; M-42.047,14.486C-11.275,11.192,37.825,-25.619,57.901,-69.484; M-42.06,14.486C-9.823,11.035,36.37,-24.214,57.402,-70.168; M-42.077,14.486C-7.886,10.826,34.141,-22.632,56.448,-71.371" keyTimes="0; 0.033333; 0.077778; 0.111111; 0.155556; 0.188889; 0.222222; 0.255556; 0.288889; 0.333333; 0.366667; 0.4; 0.444444; 0.477778; 0.511111; 0.555556; 0.588889; 0.622222; 0.666667; 0.7; 0.733333; 0.777778; 0.811111; 0.855556; 0.888889; 0.922222; 0.955556; 1" keySplines="0 0 1 1; 0 0 1 1; 0 0 1 1; 0 0 1 1; 0 0 1 1; 0 0 1 1; 0 0 1 1; 0 0 1 1; 0 0 1 1; 0 0 1 1; 0 0 1 1; 0 0 1 1; 0 0 1 1; 0 0 1 1; 0 0 1 1; 0 0 1 1; 0 0 1 1; 0 0 1 1; 0 0 1 1; 0 0 1 1; 0 0 1 1; 0 0 1 1; 0 0 1 1; 0 0 1 1; 0 0 1 1; 0 0 1 1; 0 0 1 1" fill="freeze" /></path></g></g><g transform="matrix(1,0,0,1,88,88)" /></g></g><g id="i26"><g transform="translate(47.141,75.922)"><animateTransform repeatCount="indefinite" type="translate" attributeName="transform" dur="3.003s" begin="0s" calcMode="spline" values="47.141 75.922; 44.219 70.672; 42.078 69.875; 41.375 72.125; 47.109 75.969; 47.109 75.969" keyTimes="0; 0.177778; 0.244444; 0.366667; 1; 1" keySplines="0 0 1 1; 0 0 1 1; 0 0 1 1; 0 0 1 1; 0 0 1 1" fill="freeze" /><g transform="scale(1,1) translate(-36.5,-24)"><g id="i13" transform="matrix(1,0,0,1,36.294,24.234)"><path fill="#ffffff" d="M27.054,-0.329C27.309,-1.572,27.442,-2.858,27.442,-4.176C27.442,-14.719,18.895,-23.266,8.352,-23.266C1.021,-23.266,-5.345,-19.134,-8.543,-13.072C-10.285,-14.936,-12.759,-16.107,-15.511,-16.107C-20.783,-16.107,-25.056,-11.834,-25.056,-6.562C-25.056,-5.295,-24.809,-4.087,-24.361,-2.981C-24.361,-2.981,-22.259,-2.983,-22.67,-2.983C-29.919,-2.983,-35.794,2.893,-35.794,10.141C-35.794,17.39,-29.919,23.266,-22.67,23.266C-22.67,23.266,23.863,23.266,23.863,23.266C30.453,23.266,35.794,17.925,35.794,11.335C35.794,5.78,31.998,1.111,26.858,-0.218C25.901,-0.465,27.054,-0.329,27.054,-0.329Z" /></g><g id="i14" transform="matrix(1,0,0,1,12.454,15.993)"><path fill="#f8edef" d="M1.167,0.486C0.91,0.487,-0.521,0.488,-0.521,0.488C-0.677,0.104,-0.799,-0.298,-0.904,-0.705C-1.022,-0.246,-1.118,0.222,-1.167,0.705C-0.409,0.568,0.369,0.486,1.167,0.486Z" /></g><g id="i15" transform="matrix(1,0,0,1,62.949,18.542)"><path fill="#f8edef" d="M0.399,0.591C0.399,0.591,-0.754,0.454,0.203,0.702C0.39,0.75,0.57,0.813,0.754,0.87C0.734,0.283,0.694,-0.298,0.622,-0.87C0.561,-0.379,0.497,0.112,0.399,0.591Z" /></g><g id="i16" transform="matrix(1,0,0,1,36.294,39.745)"><path fill="#e3e3e3" d="M23.863,2.983C23.863,2.983,-22.67,2.983,-22.67,2.983C-29.102,2.983,-34.443,-1.649,-35.567,-7.756C-35.71,-6.981,-35.794,-6.185,-35.794,-5.369C-35.794,1.88,-29.919,7.756,-22.67,7.756C-22.67,7.756,23.863,7.756,23.863,7.756C30.453,7.756,35.794,2.414,35.794,-4.176C35.794,-4.986,35.704,-5.774,35.55,-6.539C34.435,-1.105,29.627,2.983,23.863,2.983Z" /></g><g id="i17" transform="matrix(1,0,0,1,36.294,24.234)"><path stroke-linejoin="round" stroke-linecap="round" stroke-width="1" stroke="#201d1f" fill-rule="evenodd" d="M-5.966,-6.562C-5.966,-11.834,-10.239,-16.107,-15.511,-16.107C-20.783,-16.107,-25.056,-11.834,-25.056,-6.562C-25.056,-5.295,-24.809,-4.087,-24.361,-2.981M-15.13,-0.602C-17.263,-2.102,-19.864,-2.983,-22.67,-2.983C-29.919,-2.983,-35.794,2.893,-35.794,10.141C-35.794,17.39,-29.919,23.266,-22.67,23.266C-22.67,23.266,23.863,23.266,23.863,23.266C30.453,23.266,35.794,17.925,35.794,11.335C35.794,4.746,30.453,-0.596,23.863,-0.596C21.006,-0.596,18.383,0.408,16.329,2.082M27.054,-0.329C27.308,-1.572,27.442,-2.858,27.442,-4.176C27.442,-14.719,18.896,-23.266,8.352,-23.266C1.02,-23.266,-5.346,-19.134,-8.544,-13.071" /></g></g></g></g></svg>